<?xml version="1.0" encoding="utf-8"?>
<!-- Generator: Adobe Illustrator 24.2.1, SVG Export Plug-In . SVG Version: 6.00 Build 0)  -->
<svg version="1.1" id="圖層_1" xmlns="http://www.w3.org/2000/svg" xmlns:xlink="http://www.w3.org/1999/xlink" x="0px" y="0px"
	 viewBox="0 0 17 27" style="enable-background:new 0 0 17 27;" xml:space="preserve">
<style type="text/css">
	.st0{fill:#E9E7E5;}
</style>
<g>
	<path class="st0" d="M8.5,12.1c-2.2,0-4.1-1.8-4.1-4c0-2.2,1.8-4,4-4c2.2,0,4.1,1.8,4.1,4C12.6,10.2,10.8,12,8.5,12.1"/>
	<path d="M8.4,0C3.8,0,0,3.8,0,8.4C0,13,8.6,27,8.6,27S17,12.9,17,8.3S13.1,0,8.4,0 M8.5,12.1c-2.2,0-4.1-1.8-4.1-4c0-2.2,1.8-4,4-4
		c2.2,0,4.1,1.8,4.1,4C12.6,10.2,10.8,12,8.5,12.1"/>
</g>
</svg>
