<!--?xml version="1.0" encoding="utf-8"?-->
<!-- Generator: Adobe Illustrator 25.4.1, SVG Export Plug-In . SVG Version: 6.00 Build 0)  -->
<svg version="1.1" id="圖層_1" xmlns="http://www.w3.org/2000/svg" xmlns:xlink="http://www.w3.org/1999/xlink" x="0px" y="0px" viewBox="0 0 735.4 160" style="" xml:space="preserve">
<style type="text/css">
	.st0{fill:none;stroke:#000000;stroke-width:2.5;stroke-miterlimit:10;}
	.st1{fill:none;stroke:#000000;stroke-width:0.5;}
	.st2{font-family:'JosefinSans-ThinItalic';}
	.st3{font-size:23px;}
</style>
<path transform="matrix(0.3478 -0.9376 0.9376 0.3478 340.8198 602.6661)" class="st0 NmpTpKsc_0" d="M554.5,56.4A49.1,43.1 0,1,1 652.7,56.4A49.1,43.1 0,1,1 554.5,56.4"></path>
<path class="st0 NmpTpKsc_1" d="M75.9,17.4C56.5,1.6,26.7,8.2,13.8,28.9c-2.1,3.3-3.7,6.8-4.9,10.5C5,51,4.9,64.3,8,76
	c4,15.1,15.1,26,30.6,28.8c9.5,1.7,20,0.6,28.2-4.8"></path>
<path class="st0 NmpTpKsc_2" d="M459,17.4C439.6,1.6,409.9,8.2,397,28.9c-2.1,3.3-3.7,6.8-4.9,10.5c-3.8,11.5-4,24.8-0.9,36.5
	c4,15.1,15.1,26,30.6,28.8c9.5,1.7,20,0.6,28.2-4.8"></path>
<path class="st0 NmpTpKsc_3" d="M81.5,104.8L127.5,6.7L151.7,104.8"></path>
<path class="st0 NmpTpKsc_4" d="M98.7,67.6L142.7,67.6"></path>
<path class="st0 NmpTpKsc_5" d="M168.4,8.6L225.2,8.6"></path>
<path class="st0 NmpTpKsc_6" d="M239.4,56.3L299.2,56.3"></path>
<path class="st0 NmpTpKsc_7" d="M196.3,8.6L186,104.8"></path>
<path class="st0 NmpTpKsc_8" d="M245,7.9L234.3,104.8"></path>
<path class="st0 NmpTpKsc_9" d="M304.5,7.9L293.8,104.8"></path>
<path class="st0 NmpTpKsc_10" d="M477.2,56.3L536.9,56.3"></path>
<path class="st0 NmpTpKsc_11" d="M482.7,7.9L472,104.8"></path>
<path class="st0 NmpTpKsc_12" d="M542.2,7.9L531.5,104.8"></path>
<path class="st0 NmpTpKsc_13" d="M675.2,7.9l-7.6,69.3c0,0-4.5,25.1,23.1,27.6s32.2-28.9,32.2-28.9l7.5-68.1"></path>
<text transform="matrix(1 0 0 1 6.823 155.8069)" class="st1 st2 st3">web designer based in TAIPEI.</text>
<style data-made-with="vivus-instant">.NmpTpKsc_0{stroke-dasharray:291 293;stroke-dashoffset:292;animation:NmpTpKsc_draw 1000ms linear 0ms forwards;}.NmpTpKsc_1{stroke-dasharray:194 196;stroke-dashoffset:195;animation:NmpTpKsc_draw 1000ms linear 38ms forwards;}.NmpTpKsc_2{stroke-dasharray:194 196;stroke-dashoffset:195;animation:NmpTpKsc_draw 1000ms linear 76ms forwards;}.NmpTpKsc_3{stroke-dasharray:210 212;stroke-dashoffset:211;animation:NmpTpKsc_draw 1000ms linear 115ms forwards;}.NmpTpKsc_4{stroke-dasharray:44 46;stroke-dashoffset:45;animation:NmpTpKsc_draw 1000ms linear 153ms forwards;}.NmpTpKsc_5{stroke-dasharray:57 59;stroke-dashoffset:58;animation:NmpTpKsc_draw 1000ms linear 192ms forwards;}.NmpTpKsc_6{stroke-dasharray:60 62;stroke-dashoffset:61;animation:NmpTpKsc_draw 1000ms linear 230ms forwards;}.NmpTpKsc_7{stroke-dasharray:97 99;stroke-dashoffset:98;animation:NmpTpKsc_draw 1000ms linear 269ms forwards;}.NmpTpKsc_8{stroke-dasharray:98 100;stroke-dashoffset:99;animation:NmpTpKsc_draw 1000ms linear 307ms forwards;}.NmpTpKsc_9{stroke-dasharray:98 100;stroke-dashoffset:99;animation:NmpTpKsc_draw 1000ms linear 346ms forwards;}.NmpTpKsc_10{stroke-dasharray:60 62;stroke-dashoffset:61;animation:NmpTpKsc_draw 1000ms linear 384ms forwards;}.NmpTpKsc_11{stroke-dasharray:98 100;stroke-dashoffset:99;animation:NmpTpKsc_draw 1000ms linear 423ms forwards;}.NmpTpKsc_12{stroke-dasharray:98 100;stroke-dashoffset:99;animation:NmpTpKsc_draw 1000ms linear 461ms forwards;}.NmpTpKsc_13{stroke-dasharray:228 230;stroke-dashoffset:229;animation:NmpTpKsc_draw 1000ms linear 500ms forwards;}@keyframes NmpTpKsc_draw{100%{stroke-dashoffset:0;}}@keyframes NmpTpKsc_fade{0%{stroke-opacity:1;}92.98245614035088%{stroke-opacity:1;}100%{stroke-opacity:0;}}</style></svg>
