<?xml version="1.0" encoding="utf-8"?>
<!-- Generator: Adobe Illustrator 25.4.1, SVG Export Plug-In . SVG Version: 6.00 Build 0)  -->
<svg version="1.1" id="å_x9C__x96_å_xB1__xA4__x5F_1"
	 xmlns="http://www.w3.org/2000/svg" xmlns:xlink="http://www.w3.org/1999/xlink" x="0px" y="0px" viewBox="0 0 732 159.6"
	 style="enable-background:new 0 0 732 159.6;" xml:space="preserve">
<style type="text/css">
	.st0{fill:none;stroke:#000000;stroke-width:2.5001;stroke-miterlimit:10.0003;}
	.st1{fill:none;stroke:#000000;stroke-width:2.5;stroke-miterlimit:10;}
	.st2{fill:none;stroke:#000000;stroke-width:0.5;}
	.st3{font-family:'JosefinSans-ThinItalic';}
	.st4{font-size:23px;}
</style>
<path class="st0" d="M584.4,102.1C562,93.8,551.6,66.5,561,41c9.4-25.4,35.2-39.3,57.5-31c22.3,8.3,32.8,35.6,23.3,61
	C632.4,96.4,606.7,110.3,584.4,102.1"/>
<path class="st1" d="M73.7,17.1C54.3,1.3,24.5,7.9,11.6,28.6c-2.1,3.3-3.7,6.8-4.9,10.5c-3.8,11.5-4,24.8-0.9,36.5
	c4,15.1,15.1,26,30.6,28.8c9.5,1.7,20,0.6,28.2-4.8"/>
<path class="st1" d="M456.9,17.1c-19.4-15.8-49.2-9.2-62.1,11.5c-2.1,3.3-3.7,6.8-4.9,10.5c-3.8,11.5-4,24.8-0.9,36.5
	c4,15.1,15.1,26,30.6,28.8c9.5,1.7,20,0.6,28.2-4.8"/>
<path class="st1" d="M79.3,104.5l46-98.1l24.2,98.1"/>
<path class="st1" d="M96.6,67.2h43.9"/>
<path class="st1" d="M166.3,8.3H223"/>
<path class="st1" d="M237.3,56H297"/>
<path class="st1" d="M194.1,8.3l-10.3,96.2"/>
<path class="st1" d="M242.8,7.6l-10.7,96.9"/>
<path class="st1" d="M302.3,7.6l-10.7,96.9"/>
<path class="st1" d="M475,56h59.8"/>
<path class="st1" d="M480.6,7.6l-10.7,96.9"/>
<path class="st1" d="M540.1,7.6l-10.7,96.9"/>
<path class="st1" d="M673,7.6l-7.6,69.3c0,0-4.5,25.1,23.1,27.6s32.2-28.9,32.2-28.9l7.5-68.1"/>
<text transform="matrix(1 0 0 1 4.6772 155.4462)" class="st2 st3 st4">web designer based in TAIPEI.</text>
</svg>
