<?xml version="1.0" encoding="utf-8"?>
<!-- Generator: Adobe Illustrator 25.4.1, SVG Export Plug-In . SVG Version: 6.00 Build 0)  -->
<svg version="1.1" id="圖層_1" xmlns="http://www.w3.org/2000/svg" xmlns:xlink="http://www.w3.org/1999/xlink" x="0px" y="0px"
	 viewBox="0 0 735.4 160" style="enable-background:new 0 0 735.4 160;" xml:space="preserve">
<style type="text/css">
	.st0{fill:none;stroke:#000000;stroke-width:2.5001;stroke-miterlimit:10.0003;}
	.st1{fill:none;stroke:#000000;stroke-width:2.5;stroke-miterlimit:10;}
	.st2{fill:none;stroke:#000000;stroke-width:0.75;}
	.st3{font-family:'JosefinSans-ThinItalic';}
	.st4{font-size:28.903px;}
</style>
<ellipse transform="matrix(0.3478 -0.9376 0.9376 0.3478 340.8662 602.6991)" class="st0" cx="603.6" cy="56.3" rx="49.1" ry="43.1"/>
<path class="st1" d="M75.9,17.4C56.5,1.6,26.7,8.2,13.8,28.9c-2.1,3.3-3.7,6.8-4.9,10.5C5,51,4.9,64.3,8,76
	c4,15.1,15.1,26,30.6,28.8c9.5,1.7,20,0.6,28.2-4.8"/>
<path class="st1" d="M459,17.4c-19.4-15.8-49.1-9.2-62,11.5c-2.1,3.3-3.7,6.8-4.9,10.5c-3.8,11.5-4,24.8-0.9,36.5
	c4,15.1,15.1,26,30.6,28.8c9.5,1.7,20,0.6,28.2-4.8"/>
<polyline class="st1" points="81.5,104.8 127.5,6.7 151.7,104.8 "/>
<line class="st1" x1="98.7" y1="67.6" x2="142.7" y2="67.6"/>
<line class="st1" x1="168.4" y1="8.6" x2="225.2" y2="8.6"/>
<line class="st1" x1="239.4" y1="56.3" x2="299.2" y2="56.3"/>
<line class="st1" x1="196.3" y1="8.6" x2="186" y2="104.8"/>
<line class="st1" x1="245" y1="7.9" x2="234.3" y2="104.8"/>
<line class="st1" x1="304.5" y1="7.9" x2="293.8" y2="104.8"/>
<line class="st1" x1="477.2" y1="56.3" x2="536.9" y2="56.3"/>
<line class="st1" x1="482.7" y1="7.9" x2="472" y2="104.8"/>
<line class="st1" x1="542.2" y1="7.9" x2="531.5" y2="104.8"/>
<path class="st1" d="M675.2,7.9l-7.6,69.3c0,0-4.5,25.1,23.1,27.6s32.2-28.9,32.2-28.9l7.5-68.1"/>
<text transform="matrix(1 0 0 1 6.8232 153.1016)" class="st2 st3 st4">web designer based in TAIPEI.</text>
</svg>
