<?xml version="1.0" encoding="utf-8"?>
<!-- Generator: Adobe Illustrator 25.3.1, SVG Export Plug-In . SVG Version: 6.00 Build 0)  -->
<svg version="1.1" id="圖層_1" xmlns="http://www.w3.org/2000/svg" xmlns:xlink="http://www.w3.org/1999/xlink" x="0px" y="0px"
	 viewBox="0 0 188 160.9" style="enable-background:new 0 0 188 160.9;" xml:space="preserve">
<style type="text/css">
	.st0{fill:none;stroke:#000000;stroke-width:5;stroke-linecap:round;stroke-linejoin:round;stroke-miterlimit:10;}
	.st1{fill:none;stroke:#040000;stroke-width:3;stroke-linecap:round;stroke-linejoin:round;stroke-miterlimit:10;}
	.st2{fill:none;stroke:#040000;stroke-width:4;stroke-linecap:round;stroke-linejoin:round;stroke-miterlimit:10;}
	.st3{fill:none;stroke:#000000;stroke-width:2;stroke-linecap:round;stroke-linejoin:round;stroke-miterlimit:10;}
</style>
<path class="st0" d="M142.5,128.3c0,0,13.9,8.1,13.9,27.7"/>
<g>
	<polygon class="st1" points="2.3,118.2 0,119.3 0.6,120.6 2.9,119.5 11,119.8 7.3,111.8 	"/>
	<path class="st1" d="M18.3,105.5 M52.9,99.7l-3.5-7.2 M53.6,101.1 M46.3,104.5l7.3-3.4 M48.1,91.4L42.6,94l-22.6,10.7L8.7,110
		c-1,0.5-1.4,1.6-1,2.6l2.9,6.3c0.5,1,1.6,1.4,2.6,1l14.4-6.7l0,0l0,0l8-3.7 M53.6,99.3l3.3-1.3c2-1,2.9-3.4,1.9-5.4
		c-1-2-3.4-2.8-5.4-1.9l-3.3,1.3"/>
</g>
<path class="st2" d="M55.1,104.7c1.9-0.1,1.7,5.3-0.7,6.9c-3,2.1-12.4,4.6-19.9-3c0,0-0.9-3,2.6-3.2C46.8,105,43.5,105,55.1,104.7z"
	/>
<path class="st0" d="M21.7,116.9c0,0,5.5,5.5,8.6,16.9h80.1L129,156"/>
<path class="st0" d="M55.1,111.8c0,0,6.7,7.4,8.6,19.3"/>
<line class="st3" x1="16" y1="113.2" x2="21.7" y2="110.5"/>
<path class="st0" d="M74.7,59.6c0,0-1.2,5.3-3,11.2c-3.5,11.2-6,29.1,7.8,39.3c14.3,10.6,33.6,8.7,50.3,7.6
	c32.3-2.1,32.6-28.3,26.6-46.4c-1.4-4.1-3.7-9.6-4.9-12"/>
<path d="M95.2,54.7c-0.4-1.9,0.7-3.7,2.6-4.1c1.8-0.4,3.6,0.8,4.1,2.6c0.4,1.8-0.8,3.6-2.6,4.1C97.4,57.7,95.5,56.6,95.2,54.7z"/>
<path d="M124.9,54.7c-0.4-1.9,0.7-3.7,2.6-4.1c1.8-0.4,3.6,0.8,4.1,2.6c0.4,1.8-0.8,3.6-2.6,4.1C127.1,57.7,125.3,56.6,124.9,54.7z"
	/>
<path d="M95.2,19.1l-0.1,1.2c6.7,1.2,13.4,2.1,20.1,3.3c5.1,1,15.9,1.8,15.9,1.8c2.8-0.3,4.7-1.6,5.3-4.7
	c1.3-7.2-6.5-14.8-17.7-17.5c0.1-0.1,0.1-0.3,0.1-0.4c0.2-1.3-0.6-2.5-1.8-2.7c-1.2-0.2-2.4,0.6-2.7,1.9c0,0.2,0,0.3,0,0.5
	c-11.5-1.4-21.5,3-22.8,10.2C90.8,15.9,92.3,17.8,95.2,19.1z"/>
<path class="st0" d="M142.5,40c0,0-7.9-46,39.7-32.6c0,0-1.4,8.7-5.2,18.1c-4.5,10.9-12.4,20.7-25.4,20.6"/>
<path class="st0" d="M85.5,40c0,0,7.9-46-39.7-32.6c0,0,6.4,38.8,30.6,38.6"/>
<path class="st0" d="M138.5,88.3c-0.1,8.3-6.7,15.1-14.6,14.8c-1.4,0-2.7-0.3-4-0.7c-3.4-1.1-6.7-1.1-10.2-0.1
	c-5.7,1.8-10.8,0.5-14.9-3.8c-3.9-4.1-5.1-10.6-3.2-14.5c1.5-3,3.8-5.3,6.5-7.3c4.4-3.3,9.2-5.6,14.6-6.8c2.1-0.4,4.2,0,6.2,0.6
	c6.1,1.9,11.5,4.9,15.9,9.6C137,82.4,138.7,85,138.5,88.3z"/>
<path d="M122,83.1c-2.4-1-3.7-0.4-4,1.8c-0.2,1.4-0.3,2.8-0.1,4.2c0.2,1.8,1.3,3,3,3.6c1.6,0.5,3.1,0.1,4.2-1.2
	c1.2-1.4,1.5-3,0.6-4.6C124.7,85.1,123.3,83.8,122,83.1z"/>
<path d="M106.1,83.8c-1.1,0.8-2.3,2.1-3.1,3.8c-0.8,1.6-0.5,3.2,0.7,4.5c1.1,1.3,2.6,1.7,4.2,1.2c1.7-0.5,2.8-1.7,2.9-3.5
	c0.1-1.6-0.1-3.2-0.5-4.7C109.8,82.9,108.5,82.5,106.1,83.8z"/>
<path class="st0" d="M95.8,22.2c0,0,17.4-11,34,0"/>
</svg>
