<?xml version="1.0" encoding="utf-8"?>
<!-- Generator: Adobe Illustrator 24.2.1, SVG Export Plug-In . SVG Version: 6.00 Build 0)  -->
<svg version="1.1" id="圖層_1" xmlns="http://www.w3.org/2000/svg" xmlns:xlink="http://www.w3.org/1999/xlink" x="0px" y="0px"
	 viewBox="0 0 187 45" style="enable-background:new 0 0 187 45;" xml:space="preserve">
<style type="text/css">
	.st0{fill:#00A5A2;}
	.st1{fill:#666565;}
</style>
<g>
	<path class="st0" d="M35.85,1.33H0v42.8h51.38L35.85,1.33z M28.22,30.24l3.72-11.07l3.72,11.07H28.22z"/>
	<path class="st1" d="M64.61,15.99v0.64c0,3,1.89,3.95,3.7,3.95c2.23,0,3.94-0.95,3.94-3.58c0-4.9-9.9-4.35-9.9-10.99
		c0-3.92,2.78-6,6.48-6c4.03,0,6.29,1.96,6.11,6.46H72c0.03-2.42-0.73-4.01-3.39-4.01c-1.68,0-3.39,0.86-3.39,3.25
		c0,4.87,9.9,4.16,9.9,11.18c0,4.65-3.21,6.16-6.84,6.16c-6.51,0.06-6.51-4.93-6.45-7.04H64.61z"/>
	<polygon class="st1" points="87.27,22.57 87.27,0.46 98.63,0.46 98.63,2.91 90.08,2.91 90.08,10.01 98.02,10.01 98.02,12.46 
		90.08,12.46 90.08,20.12 98.82,20.12 98.82,22.57 	"/>
	<path class="st1" d="M110.42,0.46h6.78c2.81,0,4.83,1.01,5.93,3.37c0.89,1.87,0.98,6.28,0.98,6.98c0,4.72-0.43,7.44-1.34,8.91
		c-1.19,1.9-3.42,2.85-7.27,2.85h-5.07V0.46z M113.23,20.12h2.66c3.91,0,5.35-1.47,5.35-6.61V9.03c0-4.47-1.37-6.12-4.31-6.12h-3.7
		V20.12z"/>
	<rect x="136.08" y="10.34" class="st1" width="8.31" height="2.36"/>
	<rect x="155.2" y="0.46" class="st1" width="2.81" height="22.11"/>
	<path class="st1" d="M176.12,0.46h3.57l7.18,22.11h-3.15l-1.59-5.27h-8.52l-1.65,5.27h-2.84L176.12,0.46z M177.84,3.06h-0.06
		l-3.45,11.79h7.06L177.84,3.06z"/>
	<path class="st1" d="M70.32,44.9l-0.94-2.65h-5.1l-0.94,2.65h-1.33l4.3-11.71h1.05l4.28,11.71H70.32z M66.85,34.98l-2.2,6.19h4.37
		L66.85,34.98z"/>
	<path class="st1" d="M81.06,44.9l-2.66-5.2H75.6v5.2h-1.25V33.19h4.48c2.03,0,3.46,1.23,3.46,3.26c0,1.71-1.03,2.83-2.54,3.14
		l2.77,5.31H81.06z M78.72,34.31H75.6v4.29h3.12c1.36,0,2.33-0.71,2.33-2.14C81.05,35.03,80.08,34.31,78.72,34.31"/>
	<path class="st1" d="M89.58,45c-1.15,0-2.2-0.43-2.99-1.22c-1.1-1.1-1.1-2.25-1.1-4.74c0-2.48,0-3.63,1.1-4.74
		c0.79-0.79,1.84-1.22,2.99-1.22c2.1,0,3.66,1.28,4.05,3.49h-1.28c-0.31-1.43-1.31-2.37-2.77-2.37c-0.77,0-1.51,0.3-2.02,0.82
		c-0.74,0.76-0.82,1.56-0.82,4.01c0,2.45,0.08,3.26,0.82,4.01c0.51,0.53,1.25,0.82,2.02,0.82c1.46,0,2.49-0.94,2.81-2.37h1.25
		C93.26,43.72,91.66,45,89.58,45"/>
	<polygon class="st1" points="104,44.9 104,39.55 98.46,39.55 98.46,44.9 97.21,44.9 97.21,33.19 98.46,33.19 98.46,38.44 
		104,38.44 104,33.19 105.25,33.19 105.25,44.9 	"/>
	<rect x="109.45" y="33.19" class="st1" width="1.25" height="11.71"/>
	<polygon class="st1" points="118.33,34.31 118.33,44.9 117.08,44.9 117.08,34.31 113.7,34.31 113.7,33.19 121.71,33.19 
		121.71,34.31 	"/>
	<polygon class="st1" points="124.71,44.9 124.71,33.19 131.96,33.19 131.96,34.31 125.96,34.31 125.96,38.44 131.08,38.44 
		131.08,39.55 125.96,39.55 125.96,43.78 131.96,43.78 131.96,44.9 	"/>
	<path class="st1" d="M139.02,45c-1.15,0-2.2-0.43-2.99-1.22c-1.1-1.1-1.1-2.25-1.1-4.74c0-2.48,0-3.63,1.1-4.74
		c0.79-0.79,1.84-1.22,2.99-1.22c2.1,0,3.66,1.28,4.05,3.49h-1.28c-0.31-1.43-1.31-2.37-2.77-2.37c-0.77,0-1.51,0.3-2.02,0.82
		c-0.74,0.76-0.82,1.56-0.82,4.01c0,2.45,0.08,3.26,0.82,4.01c0.51,0.53,1.25,0.82,2.02,0.82c1.46,0,2.49-0.94,2.81-2.37h1.25
		C142.7,43.72,141.1,45,139.02,45"/>
	<polygon class="st1" points="149.75,34.31 149.75,44.9 148.5,44.9 148.5,34.31 145.12,34.31 145.12,33.19 153.13,33.19 
		153.13,34.31 	"/>
	<path class="st1" d="M160.04,45c-2.36,0-4.07-1.63-4.07-3.96v-7.85h1.25v7.75c0,1.78,1.12,2.94,2.82,2.94
		c1.71,0,2.84-1.17,2.84-2.94v-7.75h1.25v7.85C164.13,43.37,162.4,45,160.04,45"/>
	<path class="st1" d="M174.87,44.9l-2.66-5.2h-2.81v5.2h-1.25V33.19h4.48c2.03,0,3.46,1.23,3.46,3.26c0,1.71-1.03,2.83-2.54,3.14
		l2.77,5.31H174.87z M172.53,34.31h-3.12v4.29h3.12c1.36,0,2.33-0.71,2.33-2.14C174.86,35.03,173.89,34.31,172.53,34.31"/>
	<polygon class="st1" points="179.75,44.9 179.75,33.19 187,33.19 187,34.31 180.99,34.31 180.99,38.44 186.11,38.44 186.11,39.55 
		180.99,39.55 180.99,43.78 187,43.78 187,44.9 	"/>
</g>
</svg>
