<?xml version="1.0" encoding="utf-8"?>
<!-- Generator: Adobe Illustrator 25.2.3, SVG Export Plug-In . SVG Version: 6.00 Build 0)  -->
<svg version="1.1" id="圖層_1" xmlns="http://www.w3.org/2000/svg" xmlns:xlink="http://www.w3.org/1999/xlink" x="0px" y="0px"
	 viewBox="0 0 225.9 25.8" style="enable-background:new 0 0 225.9 25.8;" xml:space="preserve">
<style type="text/css">
	.st0{enable-background:new    ;}
</style>
<g class="st0">
	<path d="M0.7,8.4c0.2-0.1,0.5-0.2,0.9-0.2c0.1,0,0.2,0,0.4-0.1S2.2,8,2.3,8C2.6,7.8,2.8,7.5,3,6.9C3.1,6.5,3.2,6.2,3.4,6
		c0.1-0.2,0.3-0.3,0.6-0.3c0.1,0,0.2,0,0.2,0.1C4.2,5.9,4.3,6,4.3,6.1c0,0.1-0.1,0.2-0.2,0.5C4,6.8,4,7.1,4,7.2C4,7.5,4,7.6,4.2,7.6
		c0.2,0,0.5,0,0.8-0.1s0.6-0.1,0.8-0.1c0.1,0,0.2,0.1,0.4,0.2S6.4,7.9,6.4,8c0,0.2-0.1,0.4-0.3,0.5C5.9,8.7,5.6,8.8,5.2,9
		c-0.4,0.2-0.7,0.3-1,0.5S4,9.8,4,10.1c0,0.1,0,0.3,0.1,0.5c0,0.2,0.1,0.3,0.1,0.4c0.3,0,0.5-0.1,0.8-0.2c0.3-0.1,0.4-0.2,0.5-0.2
		c0.3-0.2,0.6-0.3,0.8-0.4C6.4,10,6.7,10,6.9,10c0.2,0,0.4,0.1,0.6,0.4c0.2,0.3,0.3,0.5,0.3,0.7c0,0.4-0.2,0.8-0.6,1
		C7,12.4,6.5,12.7,5.8,13c-0.5,0.2-0.9,0.4-1.1,0.6c-0.3,0.2-0.4,0.3-0.5,0.5c0,0.5-0.1,0.9-0.1,1.4c0,1.3-0.1,2.4-0.2,3.3
		S3.4,20.3,3,20.6c-0.1,0.1-0.2,0.2-0.4,0.4c-0.2,0.2-0.3,0.3-0.4,0.3c-0.3,0-0.6-0.2-1.1-0.7c-0.5-0.4-0.8-0.8-0.9-1.1
		C0.1,19.2,0,18.8,0,18.3C0,18.2,0.1,18,0.2,18s0.3-0.1,0.4-0.1c0.2,0,0.5,0.2,0.8,0.7c0,0,0.1,0.1,0.2,0.3c0.1,0.1,0.2,0.2,0.3,0.3
		C2,19,2.1,18.2,2.1,16.7c0-0.9-0.1-1.4-0.2-1.4c-0.1,0-0.2,0.1-0.4,0.3s-0.4,0.3-0.5,0.3c-0.2,0-0.3-0.1-0.4-0.3
		c-0.1-0.2-0.1-0.4-0.1-0.6c0-0.5,0.1-0.8,0.2-1.1s0.4-0.5,0.7-0.7c0.4-0.3,0.7-0.6,0.8-0.9c0.1-0.3,0.2-0.8,0.2-1.8
		c0-0.5-0.1-0.8-0.2-0.9C2,9.7,1.8,9.7,1.5,9.7c-0.4,0-0.6,0-0.8-0.1C0.5,9.5,0.4,9.2,0.4,8.9C0.4,8.6,0.5,8.5,0.7,8.4z M9.1,17.9
		c0.1-0.2,0.2-0.3,0.2-0.3c0.2-0.4,0.4-0.8,0.4-1.3c0.1-0.5,0.1-1.2,0.1-1.9l0.1-1.1c0-0.3,0.1-0.7,0.3-1.2c0.1-0.4,0.2-1,0.2-1.8
		c0-0.1,0-0.3,0-0.5c0-0.2,0-0.4,0.1-0.6c0-0.1,0-0.3,0.1-0.7c0-0.4,0.1-0.7,0.2-1C10.8,7.2,11,7,11.1,7c0.2,0,0.3,0.1,0.4,0.2
		c0.1,0.1,0.1,0.3,0.1,0.5c0,0.2,0,0.4,0.1,0.4s0.1,0.1,0.2,0.1c0.3,0,0.6-0.1,1-0.2c0.5-0.2,0.8-0.2,1-0.2c0.3,0,0.6,0.1,0.9,0.3
		c0.3,0.2,0.4,0.5,0.4,0.8c0,0.4-0.1,0.8-0.2,1.1c-0.2,0.3-0.2,0.6-0.2,0.8c0,0.2-0.2,0.4-0.5,0.7c-0.3,0.2-0.8,0.5-1.4,0.8
		c-0.3,0.2-0.6,0.3-0.8,0.5c-0.3,0.2-0.5,0.3-0.6,0.4c-0.1,0.1-0.1,0.6-0.2,1.5c0,0.9-0.1,1.5-0.1,2c0,0.2,0,0.3,0.1,0.4
		c0.9,0,1.8-0.1,2.8-0.3c1-0.1,1.5-0.2,1.7-0.3c1.1-0.2,2-0.3,2.8-0.4c0.7-0.1,1.5-0.1,2.3-0.1c0.5,0,0.8,0.1,1.1,0.2
		c0.3,0.1,0.4,0.4,0.4,0.8c0,0.5-0.2,0.9-0.6,1.1c-0.3,0.2-0.8,0.3-1.3,0.3c-0.5,0-0.8,0.1-1,0.1c-1.8,0.2-3.4,0.5-4.8,0.7
		c-0.5,0.1-1,0.1-1.5,0.2c-0.6,0-1.2,0.1-1.7,0.2c-0.1,0-0.2,0-0.3,0.1c-0.2,0-0.3,0.1-0.5,0.1c-0.3,0-0.7-0.1-1.1-0.4
		c-0.4-0.3-0.6-0.6-0.6-0.8C8.9,18.2,9,18.1,9.1,17.9z M10,5.2c0.6-0.4,1.2-0.7,1.9-1c0.7-0.3,1.2-0.4,1.5-0.4C13.8,3.8,14,4,14,4.3
		c0,0.2-0.3,0.5-0.8,0.9S12,6.1,11.4,6.5c-0.6,0.4-1,0.6-1.2,0.6c-0.2,0-0.5-0.1-0.7-0.3S9.2,6.5,9.2,6.2C9.2,5.9,9.5,5.6,10,5.2z
		 M13.2,9.3c-1.1,0-1.6,0.5-1.6,1.6c0,0.2,0,0.3,0.1,0.4c0.4-0.1,0.9-0.3,1.4-0.6c0.5-0.4,0.8-0.7,0.8-1.1
		C13.9,9.4,13.7,9.3,13.2,9.3z"/>
	<path d="M31.8,3.3c0.2,0,0.4-0.1,0.7-0.1c0.3,0,0.5-0.1,0.7-0.2s0.4-0.3,0.7-0.5c0.4-0.3,0.7-0.6,1.1-0.7c0.3-0.2,0.8-0.2,1.4-0.2
		c0.2,0,0.3,0,0.5,0.1c0.1,0,0.2,0.1,0.2,0.3c0,0.1-0.1,0.2-0.3,0.3c-0.2,0.1-0.3,0.2-0.4,0.3c-0.4,0.3-0.8,0.6-1,0.8
		s-0.4,0.4-0.4,0.6c0.3,0.4,0.6,0.8,0.8,1.3c0.2,0.5,0.3,0.9,0.3,1.3c0,0.2-0.1,0.3-0.2,0.5S35.3,7.3,35,7.6c-0.4,0.4-0.7,0.7-0.9,1
		c-0.2,0.3-0.3,0.6-0.3,0.9c0,0.1,0.2,0.3,0.7,0.7c0.5,0.4,0.8,0.5,0.9,0.5c0.2,0,0.7-0.1,1.6-0.2s1.3-0.2,1.4-0.3
		c0.1-0.1,0.2-0.3,0.3-0.7c0.1-0.4,0.2-0.8,0.2-1.1c0-0.1-0.1-0.2-0.3-0.2c-0.1,0-0.2,0-0.4,0.1c-0.2,0-0.3,0.1-0.4,0.1
		c-0.2,0-0.4,0-0.7-0.1C37,8.1,36.9,8,36.9,7.8V7.6c0.1-0.1,0.2-0.2,0.5-0.3c0.3-0.1,0.6-0.2,1-0.2c0.3-0.1,0.5-0.1,0.7-0.2
		s0.3-0.1,0.3-0.2c0-0.1,0-0.2-0.1-0.3S39.1,6.1,39,6.1c-0.3,0-0.7,0.1-1.1,0.4s-0.7,0.4-0.7,0.4c-0.2,0-0.3-0.1-0.4-0.2
		c-0.1-0.1-0.1-0.3-0.1-0.4c0-0.4,0.2-0.8,0.6-1c0.4-0.3,0.8-0.4,1.3-0.4c0.4,0,0.6-0.1,0.6-0.2c0-0.2-0.1-0.4-0.2-0.8
		c-0.2-0.4-0.2-0.6-0.2-0.8c0-0.1,0-0.3,0.1-0.4c0.1-0.1,0.2-0.2,0.3-0.2c0.7,0,1.2,0.5,1.4,1.5s0.4,2,0.4,3.1
		c0,0.5-0.1,1.2-0.4,2.1c-0.2,0.6-0.2,1-0.3,1.1c0.2,0.1,0.5,0.3,0.9,0.4c0.4,0.1,0.7,0.2,0.8,0.2c0.3,0.1,0.5,0.3,0.8,0.7
		c0.2,0.4,0.4,0.7,0.4,1c0,1-0.6,1.8-1.8,2.4c-0.4,0.2-0.8,0.3-1,0.3c-0.3,0-0.4-0.1-0.4-0.4c0-0.1,0.1-0.2,0.2-0.3s0.2-0.2,0.4-0.4
		c0.3-0.2,0.5-0.4,0.6-0.6c0.1-0.1,0.2-0.3,0.2-0.5c0-0.2-0.2-0.4-0.6-0.5s-0.7-0.2-1-0.2c-0.2,0-0.5,0.1-0.7,0.3s-0.5,0.3-0.6,0.3
		s-0.3-0.1-0.5-0.2c-0.2-0.1-0.3-0.2-0.4-0.2c-2.2,0-4.4,0.2-6.4,0.7c-2.1,0.5-3.8,1.3-5.1,2.4c-0.1,0.1-0.3,0.3-0.7,0.7
		c-0.4,0.4-0.7,0.6-0.8,0.6c-0.1,0-0.2-0.1-0.4-0.2c-0.1-0.1-0.2-0.2-0.2-0.3c0-0.2,0.6-1,1.9-2.3l0.6-0.7c-0.3-0.4-0.5-0.9-0.5-1.6
		c0-1.1,0.1-2.3,0.4-3.6s0.6-2.2,1.1-2.9c0,0,0.1-0.1,0.2-0.3c0.1-0.2,0.3-0.3,0.4-0.3c0.2,0,0.3,0.1,0.3,0.3c0,0.1,0,0.3-0.1,0.5
		C28,5.7,27.9,5.8,27.9,6l0,0.4c0.1,0,0.2,0,0.4,0c0.1,0,0.3,0,0.4,0c0.5,0,0.8,0.2,0.8,0.6c0,0.1-0.1,0.2-0.2,0.3S29,7.4,28.7,7.5
		c-0.3,0.1-0.5,0.1-0.6,0.2S27.9,7.8,27.9,8s0,0.2,0.1,0.2c0.8-0.4,1.4-0.6,1.8-0.6c0.2,0,0.6,0.1,1.3,0.4c0.5,0.2,0.7,0.2,0.8,0.2
		c0.1,0,0.4-0.2,0.9-0.7c0.1-0.1,0.2-0.2,0.5-0.5s0.5-0.4,0.6-0.5c0.2-0.1,0.3-0.2,0.4-0.3c0-0.1-0.2-0.3-0.3-0.5
		c-0.2-0.2-0.3-0.4-0.4-0.4c-0.1,0-0.2,0.1-0.5,0.4c-0.2,0.2-0.5,0.4-0.7,0.6c-0.2,0.1-0.4,0.2-0.7,0.2c-0.2,0-0.3-0.1-0.4-0.2
		c-0.1-0.2-0.1-0.3-0.1-0.5s0.1-0.4,0.2-0.6c0.1-0.2,0.2-0.3,0.2-0.4c-0.2-0.1-0.3-0.2-0.3-0.3c-0.1-0.1-0.1-0.2-0.1-0.3
		C31.1,3.6,31.3,3.4,31.8,3.3z M25,4.1c0.4-0.5,0.8-0.9,1.2-1.2c0.5-0.3,0.9-0.5,1.2-0.5c0.2,0,0.4,0.1,0.6,0.2s0.3,0.3,0.3,0.6
		c0,0.2-0.1,0.4-0.4,0.6s-0.6,0.5-1,0.8c-0.4,0.3-0.7,0.5-0.9,0.7s-0.3,0.4-0.3,0.5s0,0.3-0.1,0.4c-0.1,0.1-0.2,0.2-0.4,0.2
		c-0.2,0-0.4-0.1-0.6-0.4c-0.2-0.2-0.2-0.5-0.2-0.7C24.5,4.9,24.7,4.5,25,4.1z M32.3,13.7c0.2-0.2,0.4-0.3,0.6-0.3
		c0.4,0,0.7,0.2,1.1,0.7c0.4,0.5,0.6,0.9,0.6,1.3c0,0.3-0.1,0.6-0.2,0.9s-0.2,0.5-0.2,0.6c-0.3,0.6-0.4,1.1-0.4,1.4
		c0.3,0,0.7,0,1.2-0.1c0.5-0.1,1-0.2,1.4-0.3c1.2-0.3,2.2-0.4,2.8-0.4c0.8,0,1.5,0.1,2.1,0.3c0.7,0.2,1,0.6,1,1.2
		c0,0.2-0.1,0.4-0.2,0.6c-0.2,0.2-0.3,0.3-0.5,0.3c-0.1,0-0.5,0-1.1-0.1c-0.4-0.1-0.8-0.1-1.1-0.1c-0.7,0-1.6,0.1-2.6,0.2
		c-1,0.2-1.8,0.4-2.2,0.6c0,1.2-0.1,2-0.2,2.3c-0.2,0.5-0.6,1.2-1.1,1.8c-0.5,0.7-0.9,1-1.3,1c-0.2,0-0.4-0.1-0.6-0.2
		c-0.2-0.1-0.3-0.3-0.3-0.5c0-0.1,0.1-0.4,0.4-0.9c0.3-0.6,0.6-1.1,0.8-1.5c0.2-0.4,0.3-0.9,0.3-1.4h-0.4l-0.1,0
		c-0.6,0.2-1.1,0.3-1.4,0.3c-0.7,0.2-1.3,0.3-1.8,0.4c-0.5,0.1-0.9,0.3-1.4,0.5c-0.2,0.1-0.3,0.1-0.4,0.1c-0.1,0-0.2,0-0.2-0.1
		l-0.1-0.1c0-0.4,0.3-0.7,0.8-1.1c0.5-0.3,1.3-0.7,2.2-1.2c1.1-0.5,1.7-0.8,2-1.1c0-0.1-0.1-0.2-0.2-0.3s-0.1-0.3-0.2-0.4
		c0.3-0.4,0.6-0.8,0.9-1.3c0.3-0.5,0.4-0.9,0.4-1.2c0-0.2,0-0.4-0.1-0.5c-0.1-0.1-0.2-0.2-0.3-0.2c-0.1-0.1-0.2-0.1-0.3-0.2
		c-0.1-0.1-0.1-0.3-0.1-0.5C32.1,14.2,32.2,13.9,32.3,13.7z M31.1,8.9c-0.2-0.2-0.3-0.4-0.4-0.4c-0.1,0-0.2,0.1-0.5,0.3
		c-0.2,0.1-0.5,0.3-1.1,0.5s-1,0.4-1.3,0.5c0,0.1-0.1,0.4-0.2,0.9c-0.1,0.5-0.1,0.8-0.1,1h0.2c0.1,0,0.2-0.1,0.4-0.1
		c0.2-0.1,0.3-0.1,0.4-0.1c0.2,0,0.4,0.1,0.4,0.4c0,0.2-0.1,0.3-0.2,0.5c-0.1,0.2-0.2,0.3-0.2,0.3l0.1,0.1c1.4-0.5,2.3-0.9,2.5-1.1
		c0.1-0.2,0.1-0.4,0.1-0.8c0-0.4,0-0.8,0.1-1c0.1-0.2,0.2-0.4,0.2-0.5C31.4,9.3,31.3,9.1,31.1,8.9z M33.2,10.7
		c-0.1,0-0.1-0.1-0.2-0.1c-0.2,0-0.2,0.1-0.2,0.2c0,0.1,0,0.1,0.1,0.2s0.1,0.1,0.2,0.1c0.1,0,0.1,0,0.1-0.1s0.1-0.1,0.1-0.1
		C33.3,10.8,33.2,10.8,33.2,10.7z"/>
	<path d="M49,4.2c0.5-0.3,0.9-0.6,1.2-0.8c0.3-0.2,0.6-0.5,0.9-0.7c0,0,0.1-0.1,0.2-0.2s0.2-0.1,0.2-0.1c0.2,0,0.4,0.2,0.4,0.6
		c0,0.2-0.2,0.6-0.7,1.1c-0.5,0.5-0.9,0.9-1.3,1.2c-0.4,0.4-0.6,0.6-0.7,0.6c0,0.3,0,0.6,0.1,0.9c0,0.3,0.1,0.5,0.3,0.5
		c0.1,0,0.2,0,0.4-0.1s0.2-0.1,0.3-0.1c0.4-0.2,0.8-0.3,1-0.3c0.3,0,0.5,0.1,0.6,0.2C51.9,7.2,52,7.5,52,7.7c0,0.3-0.1,0.5-0.3,0.7
		c-0.2,0.1-0.5,0.3-0.9,0.4c-0.4,0.1-0.8,0.3-1,0.5c-0.2,0.2-0.4,0.5-0.4,1c0,0.4,0.1,0.6,0.2,0.6c0.1,0,0.2,0,0.4-0.1
		c0.6-0.2,1.5-0.5,2.7-0.7c1.2-0.3,2.1-0.4,2.7-0.4c0.1,0,0.3,0,0.7,0c0.3,0,0.5-0.1,0.6-0.3c0.1-0.2,0.1-0.5,0.1-1
		c0-0.4-0.1-0.6-0.3-0.6c-0.3,0-0.7,0.1-1.2,0.4c-0.2,0.1-0.4,0.2-0.6,0.2s-0.4,0.1-0.5,0.1c-0.1,0-0.3-0.1-0.4-0.2
		s-0.2-0.3-0.2-0.4c0-0.2,0.2-0.5,0.5-0.8s0.7-0.5,1.2-0.8s0.8-0.3,1-0.3c0.1,0,0.2-0.1,0.3-0.2s0.1-0.3,0.1-0.5
		c0-0.2-0.1-0.4-0.2-0.5l-0.1-0.1c-0.1,0-0.3,0.1-0.5,0.2c-0.2,0.1-0.4,0.2-0.6,0.2c-0.2,0-0.3-0.1-0.4-0.2s-0.1-0.3-0.1-0.5
		c0-0.3,0.3-0.6,0.8-1c0.5-0.3,0.9-0.5,1.3-0.5c0.8,0,1.3,0.3,1.6,1c0.2,0.7,0.4,1.5,0.4,2.5v0.9c0,1-0.1,1.8-0.3,2.5
		c-0.2,0.7-0.6,1.1-1.1,1.1c-0.5,0-1,0-1.5,0.1c-0.5,0.1-0.9,0.2-1.1,0.3c0.1,0.1,0.1,0.3,0.2,0.7c0,0.3,0.1,0.6,0.1,0.7
		c0.3,1.8,0.8,3.3,1.4,4.7s1.5,2.2,2.6,2.5c0.5,0.2,1.3,0.2,2.2,0.2c0.5,0,1.2-0.1,2.3-0.2c1-0.2,1.7-0.3,1.9-0.5
		c0.2-0.2,0.3-0.3,0.3-0.6c0-0.2,0.1-0.5,0.1-0.8c0-1.2,0-2.4-0.1-3.4c-0.1-1-0.2-2-0.5-3c0-0.1,0-0.2,0-0.3c0-0.7,0-1.2-0.1-1.6
		c0.1-0.3,0.3-0.5,0.7-0.5c0.2,0,0.4,0,0.5,0.1c0.2,0.1,0.3,0.8,0.6,2c0.2,1.2,0.4,2.5,0.6,3.9s0.3,2.3,0.3,2.6c0,1-0.2,1.8-0.5,2.3
		s-0.8,0.9-1.4,1.1c-0.6,0.2-1.4,0.4-2.5,0.6c-0.1,0-0.6,0.1-1.3,0.2c-0.8,0.1-1.5,0.2-2.2,0.2c-1.2,0-2.3-0.4-3.3-1.1
		c-1-0.7-1.8-1.7-2.4-2.8s-1-2.3-1.1-3.4c0-0.5,0-0.7-0.1-0.7c-0.1,0-0.2,0.2-0.4,0.5s-0.4,0.9-0.8,1.6c-0.7,1.5-1.4,2.8-1.9,3.6
		c-0.5,0.9-1.1,1.3-1.6,1.3c-0.2,0-0.4-0.1-0.6-0.2c-0.2-0.1-0.2-0.3-0.2-0.5c0-0.3,0.1-0.5,0.2-0.7c0.2-0.2,0.3-0.4,0.5-0.6
		s0.3-0.3,0.3-0.4c0.8-0.9,1.8-2.6,3-5.2l0.7-1.4v-0.1L52,12.2c-0.4,0-0.7,0.1-1,0.2s-0.6,0.3-1.1,0.6c-0.4,0.3-0.6,0.4-0.8,0.4
		c-0.3,0-0.5-0.1-0.8-0.3c-0.4-0.4-0.6-2.1-0.6-5V5C48,4.8,48.5,4.6,49,4.2z"/>
	<path d="M69.8,20.6c0.5-0.9,1-1.8,1.6-2.5s1.1-1.1,1.4-1.1c0.1,0,0.2,0,0.2,0.1c0.1,0.1,0.1,0.1,0.1,0.2c0,0.2-0.1,0.3-0.2,0.5
		c-0.1,0.2-0.2,0.3-0.2,0.3c-0.3,0.3-0.7,1.2-1.4,2.6c-0.7,1.4-1.2,2.2-1.3,2.3c-0.1,0.1-0.3,0.1-0.4,0.1c-0.2,0-0.3-0.1-0.4-0.2
		s-0.1-0.3-0.1-0.4C69.1,22.2,69.4,21.5,69.8,20.6z M73.9,3.1C74.4,3,74.6,3,74.7,3c0.2,0,0.5,0.1,0.8,0.3c0.5,0.4,0.9,0.9,1,1.5
		c0.1,0.6,0.2,1.4,0.2,2.3l0,0.9c0.4,0.1,0.7,0.2,0.8,0.3c0.2,0.1,0.3,0.3,0.3,0.6s-0.4,0.8-1.2,1.6c-0.8,0.8-1.7,1.5-2.7,2.2
		c-1,0.7-1.5,1-1.8,1c-0.5,0-0.8-0.9-0.8-2.7c0-1.2,0.1-2.9,0.4-5.2c0-0.2,0.1-0.6,0.1-1.1c0-0.1,0-0.2,0-0.6s0.1-0.6,0.2-0.8
		c0.1-0.2,0.3-0.3,0.5-0.3c0.1,0,0.2,0,0.3,0.1c0.1,0,0.2,0.1,0.3,0.1C73.3,3.2,73.6,3.2,73.9,3.1z M75.1,8.4
		C75.1,8.2,75,8,74.9,7.9c-0.7,0-1.2,0.2-1.5,0.6S73,9.4,73,10.1c0,0.1,0,0.2,0.1,0.4c0.2,0,0.6-0.3,1.2-0.7
		c0.6-0.5,0.9-0.8,0.9-0.9C75.2,8.8,75.2,8.6,75.1,8.4z M74.7,5.2c-0.2-0.3-0.4-0.5-0.7-0.5c-0.3,0-0.5,0.1-0.6,0.4
		c-0.2,0.3-0.2,0.5-0.2,0.8c0,0.1,0,0.3,0.1,0.6h0.9c0.4,0,0.7,0,0.9,0V6.2C75,5.8,74.9,5.5,74.7,5.2z M74.5,15.6
		c0.1-0.1,0.3-0.2,0.5-0.2c0.3,0,0.6,0.2,0.9,0.7s0.5,1,0.7,1.6s0.3,1.1,0.3,1.4c0,0.1-0.1,0.3-0.4,0.5c-0.2,0.2-0.4,0.3-0.6,0.3
		c-0.4,0-0.6-0.2-0.9-0.7c-0.2-0.5-0.4-1-0.5-1.6s-0.2-1.1-0.2-1.5C74.3,16,74.4,15.8,74.5,15.6z M78.9,16.2
		c0.1-0.1,0.3-0.2,0.4-0.2c0.2,0,0.7,0.3,1.4,1s1.3,1.3,1.9,2.1s0.9,1.2,0.9,1.5c0,0.3-0.1,0.5-0.4,0.7c-0.3,0.2-0.6,0.2-0.9,0.2
		c-0.3,0-0.8-0.3-1.3-0.9c-0.5-0.6-1-1.3-1.5-2.1s-0.7-1.3-0.7-1.7C78.8,16.5,78.8,16.3,78.9,16.2z M81.3,1.5
		C81.7,1.2,82.2,1,82.6,1c0.9,0,1.7,0.2,2.3,0.7c0.6,0.4,0.9,1.1,0.9,2c0,0.4-0.1,0.9-0.4,1.5c-0.2,0.6-0.6,1-1,1.4
		c-0.4,0.4-0.8,0.6-1.3,0.6c-0.2,0-0.4-0.1-0.5-0.2s-0.3-0.3-0.3-0.3c-0.1,0.1-0.3,0.3-0.5,0.6c-0.2,0.4-0.4,0.6-0.6,0.7
		c-0.1,0.1-0.3,0.2-0.5,0.2c-0.2,0-0.4-0.1-0.5-0.2c-0.1-0.2-0.2-0.4-0.2-0.6c0-0.3,0.1-0.6,0.2-0.9s0.3-0.7,0.5-1
		C81,5.2,81.1,5,81.1,4.9c0.4-0.7,0.6-1.1,0.6-1.3c0-0.1,0-0.1-0.1-0.2s-0.2-0.1-0.4-0.1s-0.2-0.1-0.3-0.1c-0.1-0.1-0.1-0.3-0.1-0.6
		C80.8,2.1,81,1.7,81.3,1.5z M80.5,13.8c0-0.1,0-0.2,0.1-0.4c0-0.2,0-0.4,0-0.5c0.1-0.8,0.2-1.4,0.3-1.9c0.1-0.5,0.3-0.7,0.7-0.7
		c0.2,0,0.4,0,0.6-0.1c0.2-0.1,0.3-0.2,0.3-0.2c0.4-0.2,0.7-0.3,0.9-0.3c0.7,0,1.3,0.3,1.7,1c0.4,0.6,0.6,1.3,0.6,2.1
		c0,0.4-0.2,0.7-0.7,1s-0.8,0.5-1.2,0.5c-0.2,0-0.5,0-0.7-0.1c-0.2-0.1-0.4-0.2-0.5-0.2c-0.2,0.1-0.3,0.3-0.4,0.6
		c-0.1,0.3-0.2,0.4-0.3,0.6c-0.1,0.1-0.4,0.2-0.7,0.2c-0.3,0-0.5-0.1-0.6-0.3c-0.1-0.2-0.2-0.4-0.2-0.7
		C80.4,14.3,80.4,14.1,80.5,13.8z M82.7,11.5c-0.1,0.1-0.1,0.2-0.1,0.4c0,0.2,0,0.5,0.1,0.7s0.2,0.3,0.4,0.3c0.1,0,0.3,0,0.4-0.1
		c0.1-0.1,0.1-0.2,0.1-0.3s0-0.3-0.1-0.6c-0.1-0.2-0.2-0.4-0.3-0.5L83,11.3C82.8,11.3,82.7,11.4,82.7,11.5z M83.7,3.3
		c-0.1,0-0.2,0.3-0.4,0.9c-0.1,0.6-0.2,1-0.2,1.2c0,0,0,0.1,0,0.2s0.1,0.1,0.1,0.1c0.2,0,0.4-0.2,0.5-0.7S84,4.2,84,4
		C84,3.6,83.9,3.4,83.7,3.3z M84.1,16.8c0.1-0.1,0.2-0.1,0.3-0.1c0.1,0,0.3,0.1,0.5,0.2c0.3,0.2,1.5,1.2,3.7,3.2
		c2.2,2,3.3,3,3.4,3.1c0.1,0.2,0.1,0.4,0.1,0.6c0,0.3-0.1,0.6-0.2,0.8s-0.3,0.3-0.6,0.3c-0.1,0-0.3,0-0.4-0.1
		c-0.6-0.2-1.2-0.6-1.7-1.1c-0.5-0.5-1.1-1.3-1.8-2.3l-0.8-1.1L86,19.3c-0.2-0.2-0.5-0.6-1.1-1.2c-0.6-0.6-0.8-1-0.8-1.1
		C84,16.9,84.1,16.8,84.1,16.8z"/>
	<path d="M96.8,2.8C97,2.7,97.5,2.4,98.5,2c1-0.4,1.5-0.6,1.7-0.6c0.2,0,0.4,0.1,0.6,0.2c0.2,0.1,0.2,0.3,0.2,0.5
		c0,0.3-0.1,0.5-0.4,0.6s-0.7,0.3-1.2,0.4c-0.6,0.1-1,0.3-1.3,0.5c-0.3,0.2-0.5,0.4-0.5,0.8c0,0.2,0,0.4,0.1,0.7
		c0,0.2,0.1,0.4,0.2,0.4c0,0,0.1-0.1,0.2-0.2c0.3-0.3,0.6-0.5,1.1-0.7c0.4-0.2,0.8-0.3,1.2-0.3c0.4,0,0.6,0.2,0.9,0.5
		c0.2,0.3,0.3,0.6,0.3,1c0,0.5-0.2,1-0.5,1.6c0,0,0.1,0.1,0.2,0.3s0.2,0.3,0.2,0.5c0,0.1-0.1,0.2-0.2,0.4c-0.1,0.1-0.3,0.3-0.5,0.4
		c-0.1,0-0.2,0.1-0.3,0.2c-0.1,0.1-0.2,0.2-0.2,0.2l0.1,0.1h0.3c0.2,0,0.3,0,0.4,0.1c0.1,0.1,0.1,0.2,0.1,0.4c0,0.3-0.1,0.6-0.3,1
		c-0.2,0.3-0.4,0.7-0.8,1.1c-0.3,0.4-0.4,0.6-0.4,0.6l0.1,0h0c0.1-0.1,0.4-0.3,1-0.7c0.5-0.4,0.8-0.6,0.8-0.7c0-0.1,0.1-0.3,0.1-0.6
		c0-0.1,0-0.3,0-0.7c0-0.4,0.1-0.7,0.2-0.9c0.2-0.2,0.4-0.4,0.7-0.4c0.3,0,0.4,0.1,0.6,0.3c0.1,0.2,0.2,0.5,0.2,0.7
		c0,0.1,0,0.2-0.1,0.4c0,0.2-0.1,0.3-0.1,0.4c0,0.1,0.1,0.2,0.3,0.3s0.4,0.1,0.5,0.2s0.2,0.2,0.2,0.4c0,0.2-0.1,0.4-0.2,0.5
		s-0.3,0.2-0.5,0.3c-0.2,0.1-0.4,0.2-0.5,0.3c-0.1,0.1-0.2,0.2-0.2,0.4c0,0.1,0.1,0.3,0.3,0.5c0.2,0.2,0.3,0.4,0.4,0.5
		c0,0-0.1,0.2-0.3,0.5s-0.3,0.7-0.3,1.1c0,0.3,0.1,0.6,0.3,0.9s0.3,0.5,0.3,0.6c0,0.2-0.1,0.5-0.4,0.7c-0.2,0.2-0.3,0.4-0.4,0.6
		c-0.1,0.2-0.1,0.4-0.1,0.8v0.2c0.2,0,0.4,0,0.7,0c0.1,0,0.3,0,0.5,0s0.4,0,0.6,0c0.5,0,0.8,0.1,1,0.2c0,0.1,0.1,0.3,0.1,0.5
		c0,0.2-0.1,0.3-0.2,0.4c-0.3,0.3-2.2,0.4-5.5,0.4c0,0.1-0.1,0.4-0.2,0.8c-0.1,0.4-0.2,0.8-0.4,1S98.6,23,98.4,23
		c-0.6,0-1-0.5-1-1.5c0-0.5,0.1-1,0.2-1.6s0.2-0.9,0.2-1c0.3-1.1,0.4-1.9,0.4-2.6c0-0.2,0-0.4,0.1-0.6c0.1-0.3,0.2-0.5,0.2-0.6
		c0-0.1,0.1-0.4,0.1-0.8s0.1-0.8,0.1-1.1c-0.2,0.1-0.5,0.1-0.7,0.1c-0.3,0-0.5-0.1-0.6-0.2l0-0.2c0-0.2,0.2-0.4,0.5-0.9
		c0.3-0.4,0.6-0.9,1-1.3c0.6-0.7,0.9-1.1,1-1.3c-0.1,0-0.4,0.1-0.8,0.2c-0.4,0.2-0.8,0.3-1.1,0.3c0,0-0.1,0-0.2,0
		c-0.1,0-0.2,0-0.2,0.1s-0.1,0.2-0.2,0.6c-0.1,0.3-0.1,0.6-0.1,0.7c0,0.1,0,0.1,0,0.2c0,0,0,0.1,0,0.2c0,0,0,0.1-0.1,0.3
		c-0.1,0.3-0.3,1.1-0.5,2.4c-0.2,1.1-0.4,1.9-0.5,2.6c-0.2,0.6-0.3,1-0.5,1.2l-0.2,0c-0.2,0-0.3,0-0.4-0.1c0-0.3-0.1-0.5-0.1-0.7
		c0-1.3,0.1-2.7,0.3-4c0.2-1.3,0.5-3,0.9-4.9c0-0.2,0.1-0.5,0.2-1c0.3-0.8,0.4-1.5,0.4-2.1l0,0c-0.1,0.1-0.2,0.4-0.2,0.7l0.1-0.6
		c0.1-0.4,0.2-0.8,0.2-1c0-0.1-0.1-0.2-0.2-0.3c-0.2-0.1-0.2-0.3-0.2-0.5C96.3,3.2,96.5,3,96.8,2.8z M98.7,7.8
		C99,7.6,99.3,7.3,99.6,7s0.4-0.6,0.4-0.8c0-0.2-0.1-0.3-0.2-0.3c-0.3,0-0.7,0.1-1.1,0.4C98.3,6.7,98,7,97.9,7.3
		c-0.1,0.2-0.1,0.4-0.2,0.6c-0.1,0.1-0.1,0.2-0.1,0.3l0.1,0.1C98,8.2,98.3,8.1,98.7,7.8z M100.6,19.6c0.2-0.1,0.3-0.2,0.3-0.4
		c0-0.1,0-0.1,0-0.2s-0.1-0.1-0.1-0.1c0,0-0.1,0-0.2,0.1c0,0-0.1,0.1-0.3,0.1c-0.2,0-0.3,0.1-0.4,0.1s-0.2,0.1-0.2,0.2
		c0,0.2,0.1,0.2,0.3,0.2C100.2,19.7,100.4,19.6,100.6,19.6z M100.2,12.9c-0.1-0.1-0.2-0.1-0.3-0.1s-0.1,0.1-0.1,0.2s0,0.3,0.1,0.6
		c0,0.3,0.1,0.4,0.1,0.6c0,0.4,0,0.6,0.1,0.6h0c0-0.1,0.2-0.2,0.5-0.2s0.5-0.1,0.6-0.1c0.3-0.1,0.5-0.3,0.6-0.6s0.1-0.6,0.2-1
		c-0.2,0-0.3,0-0.4,0c-0.1,0-0.2,0-0.3,0.1c-0.3,0.1-0.5,0.1-0.7,0.1C100.5,13,100.4,12.9,100.2,12.9z M100.1,15.1
		c-0.1,0.1-0.1,0.3-0.1,0.6v0.6c0,0.4,0,0.7,0.1,0.8l0.1,0c0.1,0,0.2,0,0.3-0.1s0.2-0.1,0.2-0.1c0.4-0.2,0.6-0.4,0.6-0.5
		c0.1-0.1,0.1-0.3,0.1-0.5c0-0.2,0-0.4,0.1-0.5C100.9,15.5,100.4,15.4,100.1,15.1z M106.7,2.7c0.4-0.2,0.9-0.3,1.5-0.4
		s1-0.2,1.2-0.2c1.1,0,1.6,0.2,1.6,0.6c0,0.3-0.1,0.5-0.4,0.6c-0.3,0.1-0.7,0.2-1.1,0.3c-0.5,0.1-0.8,0.2-0.9,0.3
		c-0.1,0.2-0.1,0.4-0.2,0.7c0,0.3-0.1,0.6-0.1,0.8c0,0.6,0.1,0.8,0.3,0.8c0.1,0,0.3-0.1,0.7-0.3s0.7-0.3,1-0.3
		c0.3,0,0.5,0.1,0.8,0.2c0.3,0.1,0.5,0.3,0.6,0.5c0.2,0.3,0.3,0.8,0.4,1.7c0.1,0.9,0.1,1.7,0.1,2.5c0,0.7,0,1.3,0,1.8
		s-0.1,1-0.2,1.5l0,0.1c0,0.1,0,0.3,0.1,0.5c0.1,0.2,0.2,0.3,0.2,0.4c0,0.1-0.2,0.4-0.6,1c-0.5,0.9-0.7,1.4-0.8,1.6
		c0.5,0.3,1.3,0.8,2.4,1.5s2.1,1.5,2.9,2.3c0.9,0.8,1.3,1.3,1.3,1.7c0,0.2-0.1,0.3-0.2,0.4s-0.3,0.2-0.4,0.2c-0.2,0-0.5-0.2-1-0.6
		c-0.5-0.4-1.2-1-2.2-1.9c-0.9-0.8-1.6-1.4-2.2-1.8c-0.5-0.4-0.9-0.6-1.1-0.6c-0.1,0-0.2,0.1-0.4,0.4c-0.2,0.3-0.4,0.6-0.6,0.9
		c-0.4,0.6-0.7,1.1-1,1.4c-0.2,0.3-0.5,0.5-0.7,0.5c-0.2,0-0.4-0.1-0.5-0.2s-0.2-0.3-0.2-0.5c0-0.3,0.2-0.7,0.5-1.2
		c0.3-0.5,0.7-1.1,1.3-1.8c0.6-0.9,1-1.4,1-1.5c0-0.1,0-0.1-0.1-0.2s-0.1-0.1-0.2-0.1c-0.3,0-0.6,0.1-1.1,0.3
		c-0.5,0.2-0.8,0.3-1.1,0.3c-0.2,0-0.4-0.1-0.7-0.3c-0.3-0.2-0.4-0.4-0.4-0.5c0-0.1,0-0.3,0.1-0.4c0.2-0.4,0.3-1.1,0.4-2.2
		s0.2-1.9,0.2-2.5c0-0.2,0-0.3-0.1-0.5c0-0.2-0.1-0.3-0.1-0.4c-0.1-0.4-0.2-0.7-0.2-0.9c0-0.1,0-0.2,0-0.2c0.1-0.1,0.2-0.4,0.3-0.8
		c0.1-0.4,0.2-1,0.3-1.7c0.2-0.8,0.3-1.3,0.3-1.5c0,0,0.1-0.1,0.1-0.3s0.1-0.3,0.1-0.4S107.8,4,107.7,4c-0.1,0-0.3,0-0.5,0
		c-0.4,0-0.6-0.1-0.8-0.1s-0.3-0.2-0.3-0.5S106.3,2.9,106.7,2.7z M109.5,14.8c0.2-0.2,0.3-0.5,0.3-1c0-0.3,0-0.5-0.1-0.7
		s-0.3-0.2-0.5-0.2c-0.2,0-0.4,0-0.5,0.1c-0.1,0-0.1,0.3-0.2,0.8c-0.1,0.5-0.2,0.8-0.2,1c0,0.2,0.1,0.3,0.3,0.3
		C109,15.1,109.3,15,109.5,14.8z M109.5,8.1c-0.1,0-0.3,0.1-0.6,0.4c-0.3,0.2-0.4,0.4-0.4,0.5s0.1,0.2,0.2,0.3s0.2,0.2,0.4,0.2
		c0.2,0,0.4-0.1,0.5-0.2c0.1-0.1,0.2-0.3,0.2-0.5C109.8,8.4,109.7,8.1,109.5,8.1z M109.7,11c0-0.1-0.1-0.2-0.2-0.2
		c-0.1,0-0.3,0.1-0.5,0.2c-0.2,0.2-0.3,0.3-0.3,0.5c0,0.1,0.1,0.2,0.2,0.3c0.1,0.1,0.2,0.1,0.3,0.1c0.2,0,0.3-0.1,0.4-0.2
		c0.1-0.2,0.2-0.3,0.2-0.5C109.8,11.3,109.8,11.2,109.7,11z"/>
	<path d="M122,5.7c0.2-0.1,0.4-0.2,0.6-0.2c0.3,0,0.7-0.1,1.4-0.2c0.6-0.1,1.1-0.2,1.3-0.4c0.2-0.1,0.3-0.3,0.4-0.5
		c0.1-0.2,0.2-0.6,0.3-1c0.1-0.5,0.3-0.9,0.4-1.1s0.3-0.3,0.5-0.3c0.2,0,0.3,0.1,0.3,0.2c0,0.3,0,0.6,0,0.7l0,0.8c0,0.2,0,0.4,0,0.5
		c0.8-0.1,1.4-0.1,1.6-0.1c0.7,0,1.2,0.1,1.5,0.3c0,0.5-0.2,0.8-0.5,1c-0.4,0.2-0.9,0.4-1.5,0.7c-0.1,0-0.2,0.1-0.3,0.1
		s-0.2,0.1-0.4,0.1c-0.2,0.1-0.4,0.2-0.5,0.4c-0.1,0.2-0.1,0.4-0.1,0.7c0,0.3-0.1,0.5-0.1,0.7c0,0-0.1,0.1-0.1,0.2
		c0,0.1-0.1,0.2-0.1,0.3l0.1,0c0.3,0,0.6-0.1,1-0.4s0.7-0.7,1.2-1.2c0.5-0.5,0.9-1,1.2-1.2c0.3-0.3,0.6-0.4,0.9-0.4
		c0.1,0,0.2,0,0.3,0.1l0.1,0.2c0,0.1-0.1,0.3-0.2,0.5c-0.1,0.2-0.3,0.4-0.5,0.5c0,0-0.2,0.2-0.4,0.4S130,7.6,130,7.8l0.1,0.1
		c0.1,0,0.3,0,0.4-0.1c0.2,0,0.3-0.1,0.4-0.1c0.2,0,0.4,0.1,0.6,0.2s0.3,0.3,0.3,0.5c0,0.2-0.2,0.4-0.7,0.6
		c-0.5,0.2-1.1,0.5-1.9,0.9c-0.4,0.2-0.6,0.3-0.8,0.4c-0.2,0.1-1,1-2.5,2.6c-1.5,1.6-2.4,2.7-2.8,3.1c-0.1,0.1-0.9,1.2-2.5,3.1
		c-1.6,2-2.7,2.9-3.3,2.9c-0.2,0-0.4,0-0.5-0.1s-0.1-0.2-0.1-0.4c0-0.4,0.1-0.9,0.4-1.3s0.6-0.8,1-1.3c0,0,0.2-0.2,0.5-0.6
		c0.6-0.6,1.2-1.3,1.8-2s1.2-1.2,1.8-1.7c0.2-0.2,0.8-0.8,1.7-1.8c0.9-1.1,1.4-1.7,1.5-1.8l-0.1-0.1l-0.7,0c-0.3,0-0.6,0.1-0.7,0.1
		c-0.5,0-0.9,0-1.2-0.1c-0.3-0.1-0.5-0.3-0.5-0.7c0-0.3,0.1-0.5,0.3-0.6c0.2-0.1,0.5-0.2,0.9-0.2c0.4-0.1,0.8-0.1,1.1-0.2
		c0.3-0.1,0.5-0.3,0.7-0.6s0.3-0.8,0.3-1.5c0-0.2-0.1-0.3-0.3-0.3l-1,0c-0.4,0-0.8,0.1-1,0.1c-0.4,0-0.8,0-1-0.1
		c-0.3-0.1-0.4-0.3-0.4-0.6C121.8,6,121.9,5.9,122,5.7z M128.5,14.5c0.4-0.2,0.7-0.3,1-0.4s0.5-0.1,0.8-0.1c1.2,0,1.8,1.8,1.8,5.5
		c0,2.9-0.4,4.3-1.2,4.3c-0.1,0-0.3-0.1-0.4-0.2c-0.1-0.1-0.2-0.2-0.2-0.3c-0.2,0-0.5,0-1,0.1c-0.4,0.1-0.8,0.1-1,0.1h0.1
		c-0.2,0-0.3,0-0.6,0.1c-0.2,0-0.5,0-0.8,0c-0.9,0-1.3-0.6-1.3-1.7c0-0.7,0-1.6,0.1-2.5l0.5-4.5c0-0.2,0.1-0.3,0.2-0.4
		s0.3-0.2,0.4-0.2c0.1,0,0.4,0.2,0.8,0.6C128,14.8,128.2,14.6,128.5,14.5z M130.4,19.8c0-0.4-0.1-0.5-0.4-0.5c-0.4,0-1,0.1-1.6,0.3
		s-0.9,0.4-0.9,0.8c0,0.4,0,0.7,0.1,0.9c0.1,0.2,0.3,0.3,0.7,0.3c0.6,0,1.3-0.1,1.9-0.2C130.4,20.9,130.4,20.4,130.4,19.8z
		 M130.1,16.3c-0.1-0.3-0.2-0.4-0.4-0.4c-0.3,0-0.6,0.1-1.1,0.3s-0.7,0.4-0.8,0.6c-0.1,0.1-0.1,0.4-0.1,0.7c0,0.3,0,0.5,0.1,0.6
		l0.1,0.1c0.4,0,0.8-0.1,1.4-0.3s0.9-0.4,0.9-0.7C130.2,16.9,130.2,16.6,130.1,16.3z"/>
	<path d="M172.7,6.3c0.6-0.2,1-0.3,1.1-0.3l0.9-0.2c1.1-0.3,2-0.5,2.7-0.7s1.5-0.2,2.2-0.2c0.8,0,1.5,0.2,2.1,0.5
		c0.6,0.3,0.9,0.8,0.9,1.6c0,0.4-0.1,0.7-0.2,1.1s-0.4,0.5-0.7,0.5c-0.2,0-0.3-0.1-0.4-0.2c-0.1-0.1-0.2-0.3-0.2-0.4
		c0-0.6-0.1-1-0.3-1.1c-0.2-0.1-0.5-0.2-0.8-0.2c-0.4,0-0.6,0-0.8,0c-0.5,0-0.9,0-1.1,0.1c-1.2,0.3-2.9,0.7-5,1.2
		c-1.2,0.3-2.1,0.5-2.5,0.6c-0.1,0.1-0.2,0.3-0.3,0.6s-0.2,0.5-0.2,0.6c-0.3,1.1-0.7,1.9-1.1,2.6s-0.9,1-1.6,1
		c-0.2,0-0.4-0.1-0.5-0.3s-0.3-0.4-0.3-0.6c0-0.3,0.1-0.6,0.3-1c0.2-0.4,0.5-0.8,0.8-1.4c0-0.1,0.2-0.3,0.4-0.6
		c0.2-0.4,0.3-0.6,0.3-0.8c0-0.1,0-0.2-0.1-0.3c0-0.1-0.1-0.2-0.1-0.3c0-0.1,0.2-0.4,0.6-0.7c0.4-0.4,0.6-0.7,0.6-0.7
		c0-0.1,0.1-0.1,0.1-0.2c0-0.1,0.1-0.2,0.2-0.2s0.2-0.1,0.4-0.1c0.1,0,0.3,0.1,0.5,0.3c0.2,0.2,0.3,0.3,0.5,0.3
		C171.6,6.6,172.1,6.5,172.7,6.3z M172.6,13c0.2-0.3,0.5-0.7,0.9-1.3c0.3-0.5,0.5-0.9,0.7-1.2s0.4-0.4,0.6-0.4
		c0.2,0,0.4,0.1,0.5,0.2c0.1,0.1,0.2,0.3,0.2,0.5c0,0.3-0.1,0.7-0.3,1.1c-0.2,0.4-0.3,0.8-0.3,1c0.7-0.1,1.2-0.2,1.5-0.4
		c0.2-0.1,0.4-0.3,0.8-0.6c0.4-0.4,0.7-0.6,0.9-0.6c0.5,0,0.7,0.2,0.7,0.5c0,0,0,0.1,0,0.1c0,0.1,0,0.1,0,0.1c0,0,0.1,0,0.1,0
		c0.3,0,0.8,0,1.6-0.1c0.7-0.1,1.2-0.1,1.5-0.1c0.4,0,1,0,1.7,0.1c0.7,0,1.1,0.1,1.2,0.2c0.1,0.2,0.2,0.4,0.2,0.7
		c0,0.1,0,0.3-0.1,0.5c-0.1,0.2-0.2,0.3-0.2,0.3c-0.8,0.3-2.4,0.6-4.8,0.7c-0.6,0-1.1,0.1-1.4,0.2c-0.4,0.1-0.6,0.4-0.9,0.7
		c-0.1,0.2-0.4,0.9-0.9,2.2s-0.7,1.9-0.7,2c0,0.2,0.1,0.5,0.3,0.8c0.2,0.3,0.6,0.8,1.1,1.5c0.4,0.5,0.7,0.9,0.9,1.2
		c0.2,0.3,0.3,0.5,0.3,0.7c0,0.2-0.1,0.3-0.4,0.3c-0.2,0-0.5-0.1-0.8-0.4c-0.3-0.2-0.8-0.6-1.4-1.2c-0.7-0.6-1.2-1-1.4-1.1l-1,0.8
		c-1.8,1.6-2.9,2.5-3.3,2.5c-0.2,0-0.3,0-0.4-0.1s-0.2-0.2-0.2-0.4c0-0.2,0.2-0.5,0.5-1c0.4-0.4,0.9-1,1.5-1.7
		c0.4-0.4,0.7-0.8,1.1-1.2c0.3-0.4,0.5-0.6,0.5-0.7c0-0.1-0.1-0.3-0.2-0.5s-0.2-0.4-0.3-0.5c-0.5-0.8-0.8-1.7-1-2.5
		c0-0.2-0.1-0.3-0.1-0.4c0-0.1-0.1-0.1-0.3-0.1c-0.1,0-0.2,0-0.3,0.1c-0.4,0.1-0.9,0.2-1.4,0.2s-1.1,0-1.8,0c-0.3,0-0.5-0.1-0.7-0.2
		s-0.2-0.3-0.2-0.6c0-0.3,0-0.5,0.1-0.6c0,0,0,0,0.1,0c0.5-0.2,1.2-0.3,2.1-0.4c0.1,0,0.4-0.1,0.8-0.1s0.8-0.1,1.1-0.2
		c0.3-0.1,0.6-0.2,0.8-0.3C172.2,13.5,172.4,13.3,172.6,13z M173.6,2c0.3-0.2,0.6-0.2,1-0.2c0.4,0,0.8,0,1.2,0.1s0.6,0.2,0.9,0.4
		c0.1,0.1,0.2,0.2,0.3,0.3c0.1,0.1,0.1,0.2,0.1,0.4c0,0.2-0.2,0.5-0.5,0.9c-0.3,0-0.5,0.1-0.6,0.1c-1.9,0-2.8-0.4-2.8-1.1
		C173.2,2.4,173.3,2.1,173.6,2z M176,15.1c-0.2,0-0.3-0.1-0.4-0.1c-0.3,0-0.7,0-1.1,0.1c-0.4,0.1-0.7,0.1-0.8,0.3l-0.1,0.2
		c0,0.3,0.1,0.7,0.4,1.1c0.3,0.5,0.5,0.8,0.8,1.1c0.2-0.2,0.4-0.6,0.8-1.2c0.3-0.7,0.5-1.1,0.5-1.3L176,15.1z"/>
	<path d="M188.5,6.4c0-0.4,0.1-0.9,0.4-1.3s0.5-0.8,0.9-1.2c0.3-0.3,0.6-0.4,0.9-0.5c0.3-0.1,0.8-0.2,1.3-0.3
		c0.7-0.1,1.3-0.3,1.6-0.4l0.1-0.1c0-0.1-0.1-0.2-0.3-0.2c-0.2-0.1-0.4-0.2-0.5-0.2s-0.2-0.2-0.2-0.4c0-0.4,0.1-0.7,0.2-0.9
		s0.4-0.3,0.9-0.5s0.9-0.2,1.2-0.2c0.4,0,0.7,0.1,1,0.2c0.3,0.1,0.5,0.4,0.5,0.7c0,0.4-0.1,0.6-0.4,0.7c-0.2,0.1-0.6,0.2-1.1,0.3
		c-0.3,0-0.4,0.1-0.6,0.1s-0.2,0.1-0.2,0.2c0.1,0.1,0.2,0.1,0.3,0.1c0.3,0,0.6,0,1-0.1c0.3-0.1,0.7-0.2,1-0.2c0.1,0,0.4-0.1,0.8-0.2
		s0.8-0.1,1.2-0.1c1,0,1.7,0.2,2.1,0.5c0.4,0.4,0.7,1,0.7,1.9c0,0.8-0.1,1.2-0.3,1.2c-0.4,0-0.7-0.1-0.9-0.2s-0.5-0.4-0.8-0.7
		c-0.2-0.1-0.3-0.3-0.4-0.4c-0.1-0.1-0.3-0.2-0.4-0.2c-0.3,0-0.7,0-1.1,0.1l-0.8,0.1c-1.1,0.1-1.9,0.2-2.7,0.4s-1.5,0.3-2.2,0.7
		s-1.2,0.8-1.4,1.3c-0.1,0.4-0.2,0.7-0.4,0.8s-0.4,0.3-0.7,0.3C188.7,7.6,188.5,7.2,188.5,6.4z M193.1,12.5
		c-0.4,0.2-0.9,0.3-1.4,0.4c-0.5,0.1-0.9,0.1-1.2,0.1c-0.5,0-0.7-0.1-0.7-0.4c0-0.2,0.1-0.3,0.3-0.5s0.3-0.3,0.3-0.4
		c0,0-0.1-0.1-0.4-0.3s-0.4-0.4-0.4-0.6c0-0.2,0-0.3,0.1-0.4c0.1-0.1,0.3-0.2,0.5-0.3c0.4-0.1,0.6-0.3,0.9-0.5s0.4-0.6,0.4-1.1
		c-0.1,0-0.2,0-0.4,0s-0.3,0-0.5,0c-0.6,0-0.9-0.2-0.9-0.5c0-0.3,0.2-0.6,0.7-0.8s1-0.4,1.6-0.6c0.6-0.1,1.1-0.2,1.3-0.2
		c0.3,0,0.5,0,0.7,0.1s0.3,0.2,0.3,0.4c0,0.4-0.1,0.7-0.2,0.8s-0.3,0.2-0.6,0.3c-0.2,0.1-0.4,0.1-0.5,0.2c-0.1,0.1-0.2,0.3-0.3,0.6
		c-0.1,0.3-0.1,0.5-0.2,0.6l0.1,0l0.4,0c0.3,0,0.4,0.1,0.4,0.4c0,0.1-0.1,0.3-0.3,0.5S193,10.8,193,11c0,0.1,0.1,0.1,0.2,0.1
		c0.2,0,0.3,0.1,0.4,0.2c0.1,0.2,0.1,0.3,0.1,0.5C193.7,12.1,193.5,12.3,193.1,12.5z M201.1,25.3c-0.6-0.4-1.4-0.9-2.4-1.5
		c-0.7-0.5-1.2-0.8-1.6-1.1s-0.6-0.4-0.8-0.4c-0.1,0-0.3,0.1-0.5,0.3s-0.5,0.6-0.9,1.1c-0.5,0.7-0.9,1.2-1.2,1.5s-0.5,0.5-0.8,0.5
		c-0.2,0-0.4-0.1-0.5-0.2c-0.1-0.1-0.2-0.3-0.2-0.5c0-0.3,0.2-0.6,0.5-1.2s0.7-1,1-1.3c-0.4-0.2-0.7-0.4-0.9-0.8s-0.3-0.7-0.3-1.1
		s0-0.9,0-1.5c0-3.1,0.2-4.8,0.6-5.1c0.1-0.1,0.3-0.2,0.5-0.2c0.2,0,0.4,0.1,0.5,0.2c0.1,0.1,0.2,0.3,0.2,0.5
		c0.1,0.2,0.2,0.4,0.2,0.4c0.1,0,0.2,0,0.4,0c0.1,0,0.2,0,0.3,0c0.2-0.1,0.4-0.1,0.6-0.1c0.6,0,1,0.2,1.3,0.7c0.2,0.5,0.4,1,0.4,1.7
		c0,0.4,0,0.7,0,1c0,0.3,0,0.5-0.1,0.7c-0.1,0.7-0.1,1.3-0.1,1.7c0,0.3,0,0.6,0.1,0.7c0.3,0.2,0.7,0.4,1.4,0.6
		c0.4,0.2,1,0.5,1.7,0.8c0.7,0.4,1.3,0.8,1.8,1.3c0.5,0.5,0.8,0.9,0.8,1.3c0,0.2-0.1,0.3-0.2,0.4c-0.2,0.1-0.3,0.1-0.6,0.1
		C202.2,25.8,201.7,25.6,201.1,25.3z M195.4,16.9c0.3-0.1,0.5-0.1,0.6-0.2c0-0.1-0.1-0.3-0.2-0.4s-0.3-0.1-0.5-0.1
		c-0.5,0-0.9,0.1-0.9,0.3v0.1c0,0.2,0.1,0.4,0.3,0.4C194.9,17,195.1,17,195.4,16.9z M194.8,19.1c0.2,0,0.4-0.1,0.8-0.3
		c0.4-0.2,0.5-0.4,0.5-0.5c0-0.3-0.1-0.5-0.3-0.5c-0.2,0-0.6,0.1-1.1,0.3c-0.1,0.2-0.1,0.4-0.1,0.6C194.6,19,194.6,19.1,194.8,19.1z
		 M195.7,20.6c0.3-0.2,0.5-0.5,0.5-0.8c0-0.1,0-0.1-0.1-0.1c-0.1,0-0.2,0-0.4,0.1c-0.1,0.1-0.2,0.1-0.3,0.1
		c-0.3,0.1-0.5,0.2-0.6,0.3c-0.1,0.1-0.1,0.3-0.1,0.6v0.2C195,20.9,195.4,20.8,195.7,20.6z M198.1,12.7c-0.8,0.1-1.3,0.3-1.7,0.5
		c-0.1,0-0.1,0.1-0.2,0.2c-0.1,0.1-0.2,0.1-0.3,0.1c-0.3,0-0.4-0.3-0.4-1c0-0.5,0-1,0.1-1.3s0.2-0.5,0.6-0.5c0.2,0,0.3,0.1,0.5,0.3
		c0.2,0.2,0.3,0.4,0.4,0.6c0.3,0,0.5-0.1,0.7-0.2c0.2-0.1,0.3-0.3,0.3-0.5c0-0.3-0.1-0.7-0.3-1.1c-0.1,0-0.2,0.1-0.4,0.2
		c-0.2,0.1-0.3,0.1-0.4,0.1c-0.2,0-0.3,0-0.4-0.1c-0.1-0.1-0.2-0.2-0.2-0.4c0-0.1,0.1-0.3,0.3-0.4c0.2-0.2,0.4-0.3,0.7-0.5
		c0.3-0.2,0.4-0.3,0.4-0.3c0-0.1,0.1-0.2,0.1-0.4s0.1-0.3,0.2-0.4l0.3-0.1c0.1,0,0.2,0.1,0.3,0.2c0.1,0.1,0.2,0.2,0.2,0.2
		c0.1,0.1,0.2,0.1,0.5,0.1s0.4,0.1,0.4,0.1s0.1,0.2,0.1,0.5c0,0.1-0.1,0.2-0.3,0.3c-0.2,0.1-0.4,0.2-0.4,0.3c-0.1,0.1-0.1,0.4-0.1,1
		c0,0.6-0.1,0.9-0.1,1c0.1,0.1,0.3,0.1,0.4,0.1c0.4,0,0.6-0.1,0.8-0.3s0.2-0.4,0.2-0.7c0-0.2,0.1-0.3,0.1-0.4c0-0.1,0.1-0.1,0.3-0.1
		c0.2,0,0.4,0.2,0.5,0.7s0.1,0.9,0.1,1.2c0,0.3,0,0.5-0.1,0.7s-0.2,0.3-0.5,0.3c-0.2,0-0.5-0.1-0.8-0.4
		C199.5,12.5,198.8,12.5,198.1,12.7z M195.9,8.6c0-0.1-0.1-0.3-0.1-0.5c0-0.5,0.1-1,0.2-1.6c0.1-0.5,0.4-0.8,0.7-0.8
		c0.3,0,0.5,0.1,0.6,0.2c0.3-0.2,0.5-0.4,0.7-0.4c0.2-0.1,0.5-0.1,0.8-0.1c0.3,0,0.6,0.1,0.7,0.2c0.2,0.1,0.2,0.3,0.2,0.6
		c0,0.3-0.1,0.4-0.2,0.5c-0.2,0.1-0.4,0.1-0.7,0.1c-0.2,0-0.5,0.1-0.8,0.2s-0.5,0.2-0.6,0.2c-0.2,0.4-0.4,0.8-0.6,1
		s-0.4,0.4-0.6,0.4C196,8.8,195.9,8.7,195.9,8.6z"/>
	<path d="M210.1,5c0.3-0.6,0.7-1.1,1.1-1.6s0.9-0.6,1.4-0.6c0.7,0,1,0.3,1,1c0,0.2-0.1,0.4-0.2,0.5s-0.3,0.3-0.5,0.5
		c-0.2,0.2-0.4,0.3-0.5,0.5s-0.2,0.3-0.2,0.5c0,0.2,0.1,0.4,0.3,0.4c0.4,0,0.7-0.2,1.1-0.5s0.6-0.7,0.6-1c0-0.1-0.1-0.2-0.2-0.3
		s-0.2-0.2-0.2-0.3c0-0.3,0.3-0.5,0.9-0.6s1.2-0.1,1.7-0.1c1.3,0,2,0.3,2,0.8c0,0.4-0.4,0.6-1.1,0.6l-0.8,0
		c-0.2,0.3-0.5,0.7-0.8,1.2c-0.3,0.5-0.5,0.8-0.5,0.9c0,0.1,0.1,0.1,0.2,0.2s0.2,0.1,0.3,0.1l9.8,5.1c0.2,0.1,0.3,0.3,0.3,0.6
		c0,0.2-0.1,0.4-0.2,0.5s-0.4,0.2-0.6,0.2c-0.4,0-1.1-0.3-2.2-0.8c-1.1-0.6-2.6-1.4-4.5-2.5l-1.5-0.9c-0.5-0.3-1-0.5-1.6-0.7
		s-0.9-0.3-1.1-0.3l-0.3,0.4l0.1-0.1c-0.2,0.2-0.5,0.5-0.9,0.9s-0.7,0.9-1,1.3c-0.9,1.2-1.6,2.1-2.2,2.7s-1.1,0.9-1.7,0.9
		c-0.1,0-0.2,0-0.4-0.1s-0.2-0.2-0.2-0.3s0.2-0.4,0.5-0.9s0.7-1,1.2-1.5c0.9-1.1,1.6-2,2.1-2.7c0.5-0.7,0.7-1.2,0.7-1.5
		c0-0.1-0.1-0.3-0.2-0.4s-0.2-0.2-0.2-0.3c-0.3,0.3-0.5,0.5-0.7,0.6c-0.2,0.2-0.4,0.2-0.7,0.2c-0.6,0-0.8-0.3-0.8-1
		C209.6,6.2,209.8,5.6,210.1,5z M210.9,16.1c0-0.6,0-1.1,0.1-1.5c0.1-0.4,0.3-0.8,0.6-1.1c0.5-0.5,1.2-0.9,2.2-1.3s1.9-0.5,2.7-0.5
		c0.4,0,0.8,0.2,1.1,0.5s0.4,0.8,0.4,1.2c0,0.5-0.3,1.1-0.8,1.7s-1.1,1.1-1.9,1.5c-0.7,0.4-1.3,0.6-1.8,0.6c-0.1,0-0.2,0-0.4-0.1
		c-0.2,0-0.3-0.1-0.4-0.1c-0.2,0-0.2,0.3-0.2,0.9c0,0.6,0.1,1.1,0.2,1.4s0.3,0.5,0.6,0.7s0.8,0.2,1.4,0.2c0.5,0,1.3-0.1,2.3-0.2
		c1-0.1,1.9-0.3,2.7-0.5c0.8-0.2,1.4-0.5,1.6-0.9c0.1-0.2,0.2-0.4,0.2-0.7c0-0.3,0.1-0.5,0.1-0.6c0.1-0.7,0.2-1.2,0.3-1.6
		c0.1-0.4,0.4-0.6,0.8-0.6c0.6,0,1,0.9,1,2.8l0,1.1c0,0.7-0.1,1.1-0.3,1.4c-0.2,0.3-0.8,0.6-1.9,1.1c-1.1,0.4-1.9,0.7-2.3,0.7
		c-0.2,0-0.5,0-0.9,0c-2,0-3.7-0.2-5.2-0.7c-0.9-0.3-1.5-0.8-1.8-1.6s-0.4-1.8-0.4-3V16.1z M213.7,15.7c0.1-0.3,0.2-0.8,0.2-1.3
		c0-0.2,0-0.3-0.1-0.5c0-0.1-0.1-0.2-0.3-0.2c-0.4,0-0.6,0.1-0.7,0.3s-0.2,0.5-0.2,0.8c0,0.2,0,0.5,0,0.8s0.1,0.5,0.1,0.6
		C213.3,16.2,213.6,16,213.7,15.7z M216.3,14.4c0.1-0.2,0.2-0.4,0.2-0.5c0-0.3-0.1-0.4-0.4-0.4c-0.4,0-0.5,0.3-0.5,0.8
		c0,0.1,0,0.2,0.1,0.3s0.1,0.2,0.3,0.2C216,14.7,216.1,14.6,216.3,14.4z"/>
</g>
</svg>
