<?xml version="1.0" encoding="utf-8"?>
<!-- Generator: Adobe Illustrator 25.2.1, SVG Export Plug-In . SVG Version: 6.00 Build 0)  -->
<svg version="1.1" id="圖層_1" xmlns="http://www.w3.org/2000/svg" xmlns:xlink="http://www.w3.org/1999/xlink" x="0px" y="0px"
	 viewBox="0 0 398 78" style="enable-background:new 0 0 398 78;" xml:space="preserve">
<style type="text/css">
	.st0{fill:#FFFFFF;}
</style>
<g id="Page-1">
	<g id="index_pc" transform="translate(-260.000000, -3831.000000)">
		<g id="footer" transform="translate(0.000000, 3791.000000)">
			<g id="logo" transform="translate(260.000000, 40.000000)">
				<g id="中字_去背" transform="translate(71.000000, 14.000000)">
					<path id="Shape" class="st0" d="M34.5,0c0.1,0.1,0.2,0.2,0.4,0.3c0.8,0.3,1.2,1,1.2,1.9c0,0.8,0.3,1,0.8,0.9
						c0.6-0.1,0.5-0.6,0.5-1c0-0.5,0-1,0.4-1.2c0.2-0.1,0.7,0.1,0.8,0.3c0.1,0.3,0.1,0.8,0,1.1c-0.1,0.7-0.4,1.4-0.6,2.1
						c0.5,0.3,0.7,0.2,0.9-0.3c0.2-0.5,0.5-1,0.8-1.5c0.1-0.2,0.4-0.4,0.6-0.3c0.2,0.1,0.4,0.3,0.5,0.6c0,0.2-0.2,0.5-0.4,0.6
						c-0.5,0.3-0.6,0.7-0.4,1.2c0.2,0.4,0.4,0.8,0.7,1.2c0.5,0.9,0.5,1.3-0.2,2.1c-0.3,0.4-0.2,0.6,0.2,0.7c0.3,0.1,0.6,0.3,0.9,0.5
						c0.1,0.1,0.2,0.4,0.1,0.5c0,0.1-0.3,0.2-0.4,0.3c-0.7,0.1-1.1-0.5-1.3-1.1c-0.5-1-0.7-1-1.4-0.4c0.5,0.4,0.9,0.8,1.4,1.3
						c0.5,0.5,0,1-0.2,1.3c-0.3,0.4-0.7,0-0.8-0.3c-0.3-0.6-0.8-1-1.3-1.3c-0.2-0.1-0.6-0.4-0.2-0.9c0,0-0.2-0.4-0.3-0.4
						c-0.7,0.1-1.5,0.2-2.2,0.4c-0.5,0.1-0.9,0.3-1.3-0.1c-0.1-0.1-0.3-0.3-0.3-0.4c0-0.2,0.2-0.5,0.3-0.5c1-0.3,2-0.5,3-0.6
						c0.8-0.1,0.8,0,0.6-1c-0.9,0.3-1.8,0.5-2.7,0.8C34.4,6.9,34.2,7,34,7c-0.2-0.1-0.5-0.3-0.7-0.5c0.2-0.2,0.3-0.6,0.5-0.6
						c0.9-0.2,1.7-0.3,2.6-0.5c0.2,0,0.5-0.1,0.7-0.2c0-0.1,0-0.2,0-0.3c-0.5,0-1.1-0.1-1.6,0C35,5,34.4,5.2,33.8,5.3
						c-0.3,0-0.7-0.1-1.1-0.2c0.1,0.9-0.6,1.4-1.4,2.1c1-0.2,1.4,0.2,1.6,1c0.2,0.7,0.4,1.3,0,2c0,0.1,0,0.1,0.1,0.2
						c0.4-0.2,0.9-0.3,1.3-0.5c0.4-0.2,0.8-0.6,1.3-0.8c0.6-0.3,1.1-0.3,1.6,0.4c0.3,0.4,0.8,0.7,1.3,1c0.4,0.3,0.3,0.7,0.2,1.1
						c-0.2,0.5-0.5,0.4-0.8,0.2c-0.5-0.4-1-0.4-1.6,0.1c-0.5,0.5-1.2,0.8-1.9,1.1c-0.2,0.1-0.6-0.1-0.8-0.3c-0.4-0.3-0.6-0.7-1-1.1
						c-0.3,0.4-0.5,0.8-0.8,1.3c-0.3-0.5-0.6-1-0.9-1.4c-0.2-0.2-0.4-0.5-0.6-0.6c-1-0.4-1.3-0.9-1.2-2.1c0.1-0.8,0.3-1.6-0.3-2.3
						c-0.1-0.2-0.1-0.6-0.1-0.9c0.1-0.6,0.2-1.2,0.4-1.7c0.1-0.2,0.4-0.5,0.5-0.4c0.3,0.1,0.6,0.4,0.9,0.6c0.1,0.1,0,0.5,0,0.7
						c-0.1,0.3-0.3,0.6-0.4,0.9c0,0.1,0.1,0.4,0.2,0.5c0.1,0.1,0.3-0.1,0.4-0.2c0.2-0.4,0.3-0.8,0.6-1.1c0.4-0.5,0.8-1,1.3-1.5
						c0.1-0.1,0.3,0,0.4,0c0.2,0,0.3,0.2,0.5,0.1c0.4-0.1,1-0.1,1.2-0.4c0.2-0.2-0.1-0.9-0.3-1.3c-0.2-0.5-0.5-0.9-0.9-1.3
						c0.2-0.2,0.3-0.3,0.5-0.4C34.1,0,34.3,0,34.5,0z M39.7,6.4c-0.2-0.3-0.3-0.4-0.4-0.6c-0.2,0.3-0.4,0.5-0.6,0.8
						c0,0.1,0.2,0.3,0.4,0.5C39.3,6.8,39.5,6.7,39.7,6.4z M31.2,7.6c-0.1,0-0.2,0-0.3,0c-0.1,0.4-0.2,0.8-0.2,1.2
						c0,0,0.3,0.2,0.4,0.1C31.8,8.5,31.1,8,31.2,7.6z M35.2,11.2c-0.3-0.2-0.4-0.4-0.5-0.4c-0.2,0.1-0.3,0.3-0.5,0.5
						c0.1,0.1,0.2,0.3,0.3,0.3C34.7,11.6,34.9,11.4,35.2,11.2z"/>
					<path id="Shape_1_" class="st0" d="M123.3,21c0.2-0.1,0.4-0.2,0.6-0.3c1.3-0.2,2.6-0.2,3.9-0.4c0.6-0.1,1.2-0.4,1.8-0.8
						c0.6-0.4,0.5-1-0.1-1.3c-0.5-0.3-1.1-0.4-1.7-0.7c-0.2-0.1-0.4-0.3-0.6-0.5c0.2-0.1,0.4-0.3,0.7-0.3c0.6-0.2,1.2-0.3,1.7-0.5
						c0.4-0.2,0.7-1.5,0.6-1.9c-0.1-0.1-0.2-0.2-0.4-0.2c-1.5,0-1.8-0.2-2.3-1.7c-0.4-1.2-1-2.4-1.5-3.6c-0.2-0.4-0.2-0.8-0.4-1.2
						c-0.1-0.2-0.1-0.6-0.2-0.6c-0.2,0-0.4,0.1-0.6,0.2c-0.5,0.4-0.8,0.8-0.8,1.5c0,0.3-0.1,0.6-0.2,0.9c-0.1,0.5-0.1,1,0.6,1.1
						c0.5,0,0.6,0.4,0.5,0.8c-0.2,0.6-0.5,1.3-0.9,1.8c-0.7,0.9-1,1.8-0.6,3c0.8-0.3,1.6-0.6,2.3-0.9c0.1,0.1,0.1,0.1,0.2,0.2
						c-0.3,0.4-0.5,0.8-0.8,1.1c-0.6,0.6-1.2,1.1-1.8,1.6c-1,0.7-1.8,1.5-2.6,2.5c-0.2,0.3-0.8,0.6-0.9,0.5
						c-0.3-0.3-0.5-0.7-0.7-1.1c-0.1-0.2,0-0.5-0.1-0.7c-0.1-0.5,0.1-0.8,0.6-1c0.7-0.3,1.3-0.8,1.9-1.2c0.1,0,0.2-0.1,0.2-0.2
						c0-1,0-2-0.1-3c0-0.4-0.4-0.6-0.8-0.5c-0.3,0.1-0.7,0.3-1,0.2c-0.3,0-0.6-0.2-1-0.3c0.1-0.3,0.2-0.6,0.4-0.8
						c0.7-0.6,1.4-1.1,2.1-1.7c0.9-0.6,0.9-1.6,0.8-2.5c-0.2-1.4-0.4-1.4-1.7-1.3c-0.4,0-0.8-0.3-1.2-0.5c-0.3-0.2-0.3-0.5,0-0.8
						c1-1.1,2.2-2.2,3.8-2.1c0.2,0,0.4,0,0.7-0.1c0.7-0.1,1.3,0,1.9,0.6c0.4,0.4,1,0.5,1.5,0.8c0.2,0.1,0.4,0.4,0.4,0.6
						c0.1,0.5,0.1,1,0.2,1.5c0.1,0.2,0.5,0.4,0.7,0.4c0.4,0,0.8-0.1,1.1-0.2c0.3-0.1,0.6-0.4,0.6-0.7c0.3-1.2,0.1-1.4-1-1.4
						c-0.4,0-0.7,0-1.1-0.1c0-0.1-0.1-0.2-0.1-0.3c0.4-0.3,0.7-0.6,1.2-0.7c2.2-0.5,4.3-1,6.5-1.5c0.3-0.1,0.7,0.2,1.1,0.4
						c0.7,0.4,1.2,1,1.9,1.4c1.2,0.8,1.3,2.7,0.2,3.6c-0.9,0.7-2,1.4-2.5,2.5c-0.3,0.6-0.6,1.2-1,1.8c-0.2,0.3-0.7,0.6-1.1,0.7
						c-0.7,0.2-1.4,0.2-2.1,0.3c-0.2,0.1-0.5,0.4-0.6,0.7c-0.1,0.2,0,0.5,0,0.8c0,0.4,0.2,0.7,0.6,0.7c0.7,0.1,1.4,0.2,2.1,0.5
						c0.3,0.1,0.5,0.6,0.7,0.9c-0.2,0.2-0.5,0.5-0.8,0.6c-0.7,0.3-1.4,0.6-2.2,0.8c-0.5,0.2-0.5,0.6-0.5,1.1
						c0.1,0.5,0.3,0.7,0.8,0.7c0.9-0.1,1.9-0.2,2.8-0.3c1.4-0.2,2.7-0.2,3.6,1.2c0.1,0.2,0.3,0.6,0.2,0.7c-0.2,0.2-0.6,0.5-0.8,0.4
						c-1.6-0.2-3.2-0.6-4.8-0.6c-2.1,0-4.1,0.3-6.2,0.4c-0.6,0-1.2,0.1-1.8,0.2C124.4,22.4,123.8,21.8,123.3,21z M133.7,4.8
						C133.7,4.8,133.7,4.8,133.7,4.8c-0.2,0-0.3-0.1-0.5,0c-0.4,0.1-1.1,0.2-1.1,0.5c-0.1,0.5,0,1.4,0.3,1.6
						c0.5,0.4,1.2,0.5,1.9,0.5c0.6,0,0.6-0.7,0.7-1.3c0-0.1,0-0.3,0.1-0.4c0.1-0.6-0.2-0.8-0.7-0.9C134.2,4.7,134,4.8,133.7,4.8z
						 M132.6,11.2c1-0.1,1.1-0.4,1.2-1.6c0.1-0.7-0.6-0.5-1-0.6c-0.5,0-0.9,0.7-0.9,1.5C132,11.2,132.3,11.3,132.6,11.2z M130.1,9.6
						c-0.6,0.1-1.2-0.4-1.6,0.4c-0.1,0.3,0.6,1.5,0.9,1.5C130.1,11.6,130.2,11.3,130.1,9.6z"/>
					<path id="Path" class="st0" d="M83.5,7.3c0.4-0.5,0.7-1,1.1-1.5c0.1-0.1,0.2-0.1,0.2-0.2c0.2-0.4,0.4-0.9,0.6-1.4
						C85,4.2,84.7,4,84.3,4c-1.3,0-2.6,0-3.9,0.1c-0.4,0-0.7,0.2-1.1,0.3c0.4,0.8,0.6,1.6,1.5,1.9C81,6.4,81.1,6.7,81.2,7
						c0,0.1-0.2,0.4-0.4,0.5c-0.3,0.2-0.6,0.3-0.8,0.5c-0.1,0.1-0.3,0.4-0.2,0.6c0.1,0.2,0.3,0.3,0.5,0.4c0.3,0.1,0.7,0.1,1,0.3
						c0.3,0.2,0.5,0.5,0.6,0.9c0,0.1-0.3,0.4-0.5,0.5c-0.4,0.2-0.8,0.3-1.1,0.5c-0.6,0.2-0.8,0.6-0.5,1.3c0.4,0,0.9,0,1.3,0
						c1.1-0.1,2.2-0.4,3.3-0.3c0.8,0,1.6,0.4,2.3,0.7c0.6,0.3,0.4,1.1-0.2,1.3c-0.4,0.1-0.8,0.1-1.1,0.1c-1.9-0.3-3.9-0.1-5.8,0.3
						c-0.3,0.1-0.7,0.5-0.7,0.7c0,0.5,0.5,0.6,0.8,0.5c0.7-0.1,1.5-0.1,2.2-0.4c0.6-0.2,1,0.1,1.4,0.3c0.3,0.2,0.6,0.4,0.8,0.7
						c1.1,1,1.2,1.5,0.5,2.8c-0.2,0.3-0.4,0.6-0.4,0.9c-0.1,0.4-0.1,0.7-0.1,1.1c-0.1,0.4-0.1,0.9-0.3,1.2c-0.1,0.1-0.6,0.1-0.9,0
						c-1.4-0.7-2.9-0.3-4.3-0.3c-0.5,0-1.1,0.2-1.6,0.4c-0.2,0.1-0.4,0.3-0.6,0.4c-0.2,0.1-0.4,0.4-0.5,0.4
						c-0.3-0.2-0.7-0.4-0.8-0.7c-0.3-1.8-1.1-3.3-2.2-4.7c-0.3-0.3-0.1-0.6,0.2-0.7c0.3-0.1,0.7-0.2,1-0.1c0.9,0.4,1.7,0.8,1.9,2
						c0.2,1.4,0.6,1.6,1.8,1.2c0.8-0.2,1.6-0.4,2.4-0.5c0.7-0.1,1.1-0.4,1.1-1.2c0.1-0.5,0.2-1.1,0.3-1.7c-0.4,0-0.7-0.1-1,0
						c-0.6,0.1-1.3,0.3-1.9,0.4c-0.2,0.1-0.5,0.1-0.8,0.1c-1.1-0.1-1.5-0.8-1-1.9c0.2-0.6,0.1-1-0.6-0.9c-1.1,0.2-2.3,0.4-3.4,0.6
						c-0.4,0.1-0.8,0.2-1.3,0.4c-0.6,0.2-1.4-0.3-1.5-0.9c0-0.1,0.2-0.4,0.3-0.4c0.7-0.2,1.4-0.4,2.1-0.6c1.3-0.3,2.6-0.5,3.9-0.8
						c0.5-0.1,0.8-0.4,0.7-1c-0.6-0.1-1.2-0.2-1.9-0.3c-0.5-0.8-0.5-0.9,0.4-1.5c0.5-0.4,1.1-0.7,1.8-1.1c-0.5-0.3-0.8-0.4-1.1-0.6
						c-0.2-0.1-0.4-0.1-0.5-0.2c-0.2-0.2-0.4-0.4-0.5-0.7c0-0.1,0.3-0.4,0.5-0.5c1-0.5,1.3-1.4,0.7-2.2c-0.1-0.2-0.4-0.2-0.6-0.2
						c-0.7,0.1-1.5,0.3-2.2,0.3c-0.3,0-0.5-0.4-0.8-0.6c0.3-0.2,0.5-0.5,0.8-0.5c0.6-0.1,1.3-0.2,1.9-0.2c0.1,0,0.2,0,0.3,0
						c0.3-0.2,0.7-0.4,1-0.5c-0.2-0.4-0.3-0.8-0.5-1.1c-0.2-0.3-0.8-0.4-0.5-0.9c0.3-0.4,0.7-0.8,1.2-0.9c0.7-0.2,1.5-0.1,2.1,0.6
						c0.6,0.7,1.2,1.3,1.9,1.9c0.1,0.1,0.3,0.2,0.5,0.2c0.7-0.1,1.4-0.1,2.1-0.2c1.8-0.4,3.3,0.4,4.6,1.6c0.3,0.3,0.5,0.8,0.6,1.2
						c0.2,0.8-0.2,1.4-1,1.5c-0.5,0-1,0.1-1.4,0c-0.8-0.1-1.6,0.1-2.2,0.6c-0.1,0.1-0.3,0.1-0.5,0.1C83.6,7.4,83.6,7.4,83.5,7.3z"/>
					<path id="Shape_2_" class="st0" d="M194.8,16.1c-0.7-0.1-1,0.3-1.2,0.8c-1.1,2.3-2.2,4.5-3.3,6.7c-0.2,0.4-0.5,0.7-0.8,1
						c-0.1,0-0.1-0.1-0.2-0.1c0-0.2,0-0.4,0-0.6c0.4-1.1,0.8-2.1,1.1-3.1c0.2-0.8,0.4-1.6,0.5-2.4c0.3-3,0.1-5.9-0.4-8.8
						c-0.2-0.9-0.1-1.9,0-2.8c0.1-0.6,0.6-0.7,1-0.4c0.5,0.3,0.8,0.8,0.9,1.5c0.1,0.5,0.2,0.9,0.4,1.4c0,0.1,0.1,0.1,0.1,0.2
						c0.6,0.5,1.2,0,1.8-0.1c0.2,0,0.5-0.5,0.5-0.8c0.1-0.9,0.4-1.9-0.5-2.5c-0.5-0.3-1-0.5-1.5-0.7c-0.3-0.1-0.6-0.3-1-0.4
						c0.5-0.6,1-1.2,1.4-1.7c0.1-0.1,0.2-0.2,0.4-0.2c1.4-0.2,2.7,0,3.6,1.1c0.6,0.6,0.6,1.6,0.4,2.5c-0.4,1.3-1,2.6-1.1,4
						c-0.2,1.9-0.1,3.7,0,5.6c0,1.6,0.2,3.1,0.3,4.7c0.1,1.2,0.4,1.7,1.5,1.4c1-0.3,1.9-0.8,2.8-1.2c0.6-0.3,0.6-0.7,0.2-1.2
						c0-0.1-0.1-0.1-0.1-0.2c-1-0.8-1.3-2-1.6-3.2c-0.2-0.5-0.4-0.9-0.6-1.4c0.4,0,0.7-0.1,0.9-0.1c1.2,0.3,2.1-0.4,2.9-1.2
						c1-0.9,2.1-0.8,2.8,0.4c0.4,0.7,1,1.4,1,2.4c0,0.3-0.2,0.5-0.3,0.8c-0.3,0.6-0.8,1.2-1.1,1.8c-0.4,1-0.2,1.5,0.8,2.2
						c0.6,0.4,1.2,0.6,1.8,1c1,0.7,1.9,1.4,2.8,2.2c0.2,0.2,0.3,0.8,0.2,1c-0.2,0.5-0.6,0.9-1.2,0.7c-1.1-0.3-2.2-0.4-3-1.4
						c-0.1-0.1-0.3-0.2-0.4-0.3c-1-0.7-1.9-1.4-2.9-2c-0.2-0.1-0.5-0.2-0.7-0.1c-1.5,0.5-3,0.6-4.5,0.6c-0.6,0-0.9,0.3-1,0.8
						c0,0.1,0,0.2,0,0.2c-0.2,0.3-0.4,0.6-0.6,0.9c-0.2-0.2-0.6-0.4-0.7-0.7c-0.4-0.8-0.9-1.4-1.8-1.7c-0.1,0-0.3-0.3-0.3-0.4
						c0-0.1,0.2-0.3,0.3-0.4c0.8-0.5,1.2-1.2,1.1-2.3C195,18.3,194.9,17.2,194.8,16.1z M204.4,15.9c0,0-0.1,0-0.1,0
						c0-0.3,0-0.5,0-0.8c-0.1-0.8-0.3-1-1-0.6c-0.4,0.3-0.9,0.7-1.3,1c-0.3,0.3-0.5,0.7-0.2,1.2c0.3,0.6,0.6,1.1,1,1.6
						c0.4,0.5,0.7,0.4,0.9-0.2C204.1,17.5,204.2,16.7,204.4,15.9z M192.6,15.4c1.7-0.6,2.6-2.5,2-3.8c-0.5,0.4-0.9,0.4-1.4,0
						c-0.3-0.3-0.6-0.1-0.7,0.4c0,0.7-0.1,1.4-0.1,2.1C192.5,14.5,192.6,14.9,192.6,15.4z"/>
					<path id="Shape_3_" class="st0" d="M107.3,9.1c0.2-0.7,0.3-1.3,0.5-2c-1.4,0.1-2.7,0.2-3.8,1.1c-0.2,0.2-0.2,0.7-0.2,1.1
						c0,0.1,0.4,0.3,0.7,0.3c0.3,0.1,0.6,0.1,0.8,0.2c0,0.1,0,0.1,0,0.2c-0.3,0.2-0.7,0.4-1,0.7c-0.2,0.2-0.5,0.5-0.5,0.7
						c0.1,0.4,0.3,0.6,0.8,0.5c0.7-0.1,1.4,0,2.2,0c-0.2,1-0.9,0.9-1.3,1.1c-0.8,0.3-1.6,0.4-2.4,0.7c-0.2,0.1-0.3,0.4-0.4,0.6
						c0.2,0.2,0.4,0.4,0.6,0.4c1,0,2,0,3-0.1c1.5-0.2,3.2,1,3.6,2.6c0.1,0.2,0.1,0.5,0,0.7c-0.3,0.8-0.6,1.5-1,2.4
						c0.7,0.5,1.4,1,2.1,1.5c0.6,0.4,1.1,0.8,1.7,1.2c0.5,0.3,0.6,0.9,0.6,1.5c0,0.5-0.3,0.7-0.7,0.6c-0.3-0.1-0.6-0.2-0.9-0.4
						c-1.2-0.8-2.3-1.6-3.5-2.4c-0.5-0.3-1-0.3-1.5,0.2c-1,1-2.1,1.6-3.4,2.1c-0.4,0.2-0.8,0.1-1-0.4c-0.1-0.2-0.3-0.4-0.4-0.6
						c-0.3-0.6-0.7-0.8-1.3-0.8c-0.4,0-0.8-0.1-1.3-0.2c0-0.1,0-0.1,0-0.2c0.6-0.3,1.2-0.6,1.7-1c0.5-0.3,1-0.7,1.5-1.2
						c0.2-0.1,0.3-0.5,0.2-0.6c-0.2-0.2-0.4-0.5-0.7-0.5c-0.4,0-0.8,0.3-1.2,0.4c-0.8,0.4-1.6,0.8-2.5,1.2c-0.2,0.1-0.4,0-0.7,0.1
						c1.1-1.1,2.1-2.1,3.1-3.1c0.1-0.1,0.2-0.1,0.2-0.2c0.1-0.4,0.3-0.7,0.4-1.1c-0.3,0.1-0.7,0.1-1,0.3c-0.8,0.5-1.7,0.5-2.2-0.2
						c0.3-0.1,0.7-0.2,1-0.4c1.1-0.5,1.5-1.3,1.5-2.6c0-0.4,0.3-0.6,0.7-0.6c0.3,0,0.6-0.2,0.8-0.2c-0.2-0.4-0.3-0.8-0.5-1.1
						c-0.2-0.3-0.5-0.5-0.8-0.8c0.7-0.4,1.6-0.6,1.1-1.8c-0.5,0.2-1,0.3-1.5,0.5s-1,0.6-1.6,0.2c-0.1-0.1-0.4,0.1-0.4,0.2
						c-0.2,0.5-0.4,1-0.4,1.5c0,2.7-0.9,5.1-2.3,7.3c-0.9,1.6-2.3,2.5-3.6,3.5c-0.1,0.1-0.3,0.1-0.5,0.1c0.1-0.2,0.1-0.4,0.2-0.5
						c0.7-1.2,1.6-2.3,2.2-3.5c1.1-2,1.8-4.2,2-6.5c0.1-1.1,0-2.3-0.1-3.5c0-0.5,0-0.9,0.4-1.2c0.4-0.3,0.8,0,1.2,0.2
						c0.9,0.6,1.7,0.9,2.7,0.4c0.8-0.4,1.6-0.8,2.4-1.3c0.1,0,0.2,0,0.3-0.1c1-0.2,2-0.3,2.9-0.6c1.5-0.4,2.9-0.4,4.2,0.5
						c0.3,0.2,0.4,0.7,0.6,1c0,0.1-0.1,0.3-0.2,0.4c-0.9,0.5-1.9,0.9-2.8,1.3C107.7,9.2,107.5,9.1,107.3,9.1z M108.3,17.2
						c-0.3-0.4-0.6-0.8-0.9-0.9c-0.4-0.2-0.8-0.1-1.3-0.1c-0.1,0-0.2,0.3-0.1,0.4c0.2,0.6,0.1,1.2-0.2,1.7c-0.1,0.2-0.1,0.7,0.1,0.7
						c0.4,0.2,1,0.4,1.1,0.3C107.5,18.7,107.9,17.9,108.3,17.2z M103,22.8c1-0.2,1.7-0.8,2.3-1.5c0.1-0.1,0.1-0.4,0-0.5
						c-0.4-0.4-0.8-0.7-1.3-0.3c-0.5,0.4-0.9,0.8-1.3,1.2c-0.2,0.2-0.4,0.5-0.3,0.6C102.6,22.5,102.8,22.6,103,22.8z M104,15.9
						c-0.7,0-1,0.3-1.1,1.1c0,0.6,0.2,1,0.7,1.1c0.4,0.1,1.1-0.8,1.1-1.3C104.8,16.1,104.5,15.9,104,15.9z"/>
					<path id="Shape_4_" class="st0" d="M275.6,19c1.6-0.3,3.3-0.5,4.9,0.1c0.9,0.3,1.7,0.8,2.4,1.4c0.7,0.7,0.1,1.8-0.6,2.1
						c-0.1,0.1-0.4,0-0.5-0.1c-0.7-0.4-1.4-0.8-2-1.2c-0.9-0.7-2-1.1-3-1.4c-0.2-0.1-0.5,0-0.6,0.1c-0.1,0.2-0.2,0.5-0.2,0.7
						c0.2,0.6,0.4,1.2,0.7,1.7c0.3,0.7-0.3,1.4-1.2,1.6c-1.2,0.2-2.4,0.4-3.6,0.7c-1.2,0.3-2.3,0.7-2.9,1.9c-0.3,0.5-0.6,0.5-1,0
						c-0.3-0.3-0.6-0.7-1-1c-0.7-0.4-0.4-0.9-0.3-1.4c0.1-0.5,0.4-0.8,0.9-0.8c1.1-0.1,1.2-0.2,1.4-1.3c0.1-0.7,0.2-1.3,0.2-2
						c0-3.9-0.1-7.8-0.1-11.8c0-0.9-0.1-1.9-0.2-2.8c-0.1-0.7,0.1-1,0.8-0.7c1.1,0.3,2,0.2,2.7-0.7c0.6-0.6,1.3-0.6,2.1-0.3
						c0.6,0.2,1.3,0.5,1.9,0.7c1.2,0.4,1.6,1.5,0.9,2.5c-1,1.4-1.5,3.1-2,4.7c-0.2,0.7-0.2,1.5-0.2,2.2c0,0.8-0.1,1-0.8,1.2
						c-0.2,0.1-0.4,0.1-0.6,0.2c-0.9,0.5-1.8,1-2.7,1.5c-0.5,0.3-0.4,0.7-0.2,1.1c0.1,0.4,0.5,0.5,0.8,0.3c1-0.6,1.9-1.2,2.8-1.9
						c1-0.7,1.7-1.8,2.3-2.9c0.3-0.5,0.6-0.9,1.2-0.7c0.5,0.1,1.1,0.6,1.1,1.3c0.1,0.9-0.1,1.7-0.9,2.2c-0.9,0.6-1.7,1.3-2.6,1.9
						c-1.1,0.8-2.4,1-3.7,1.1c-1.2,0.1-1.2,0.1-1.2,1.2c0,0.6,0.1,1.2,0.1,1.8c0.1,0.5,0.4,0.5,0.7,0.4c0.8-0.2,1.6-0.4,2.4-0.5
						c0.4-0.1,0.7-0.2,0.8-0.6C274.9,20.8,275.2,19.9,275.6,19z M272.3,11.7c-0.5,0.2-1,0.3-1.4,0.5c-0.1,0-0.2,0.2-0.2,0.4
						c-0.1,0.7-0.1,1.4-0.1,2.1c0,0.5,0.6,0.9,1,0.6c0.6-0.4,1.1-0.7,1.7-1.1c0.1-0.1,0.3-0.2,0.3-0.3c0-0.6,0-1.2,0-1.8
						c-0.6,0.1-0.7,1-1.4,0.7C272.1,12.3,272.2,12.1,272.3,11.7z M272.5,9.7C272.5,9.7,272.5,9.7,272.5,9.7c0.2,0.1,0.4,0.1,0.6,0.1
						c0.6-0.1,0.8-0.5,0.8-1.3c0-0.6-0.3-0.7-0.8-0.8c-0.7-0.1-1.3-0.2-2-0.2c-0.2,0-0.5,0.2-0.5,0.4c-0.1,0.6,0,1.2,0,1.7
						c0,0.5,0.3,0.6,0.7,0.4C271.7,9.8,272.1,9.7,272.5,9.7z"/>
					<path id="Path_1_" class="st0" d="M246.9,20.4c-0.6,0.5-1.2,1-1.9,1.5c-0.4,0.3-0.8,0.1-0.9-0.4c-0.1-0.5-0.3-0.8-0.7-0.7
						c-0.5,0.1-1.1,0-1.2,0.8c-0.1,0.9-0.1,1.8-0.2,2.6c-0.1,0.7-0.6,1.2-0.9,1.9c-1-0.9-0.7-2-0.6-2.9c0.2-1.7,0.3-3.5,0-5.2
						c-0.1-0.9-0.5-0.9-1.1-0.5c-1.2,0.8-2.5,1.5-4,1.4c-0.2,0-0.3-0.1-0.7-0.2c0.7-0.6,1.4-1,2-1.6c1.3-1.4,2.7-2.8,3.9-4.3
						c0.6-0.8,0.8-1.9,1.2-2.8c0.2-0.6-0.1-0.9-0.7-0.7c-0.9,0.3-1.7,0.5-2.6,0.8c-0.6,0.2-1.1,0.3-1.7,0.5c-0.1,0-0.3,0-0.4-0.1
						c-0.5-0.4-1-0.9-1.4-1.4c-0.9-1-0.3-1.6,0.6-2.1c0.3-0.1,0.7-0.1,1-0.2c1.6-0.1,3.2-0.2,4.7-0.4c1-0.1,1.1-0.2,1.1-1.3
						c0-0.5-0.1-1.1,0.4-1.3c0.5-0.2,1,0.2,1.3,0.6c0.6,0.8,1.3,1.3,2.3,1.1c1.2-0.2,2.4-0.2,3.6-0.3c0.6-0.1,1.1-0.3,1.6-0.5
						c0.4-0.2,0.8-0.3,1.2,0c0.5,0.3,1.1,0.5,1.5,0.8c0.3,0.3,0.7,0.8,0.8,1.2c0.2,0.8-0.3,1.3-1.1,1.1c-1.3-0.2-2.5-0.4-3.8-0.5
						c-1,0-2,0.2-3,0.3c-0.4,0.1-0.8,0.2-1.2,0.3c-0.6,0.2-0.9,0.5-1.2,1.2c-0.2,0.6-0.5,1.2-0.8,1.7c-0.4,0.8-0.8,1.5-1.1,2.3
						c-0.1,0.1,0.2,0.6,0.3,0.6c0.4,0.1,0.8,0.1,1.1,0.1c0.9,0,1.8,0.2,2.6,0.9c0.3,0.3,0.4,0.5,0,0.9c-0.6,0.7-1.4,1.1-2.2,1.3
						c-0.6,0.2-0.8-0.1-0.8-0.7c-0.1-0.9-0.4-1.2-1.2-1.1c-0.1,1.1-0.3,2.3-0.4,3.5c-0.1,0.5,0.2,0.8,0.6,0.8c0.5,0,0.9-0.1,1.3-0.2
						C245.4,19,246.1,19.5,246.9,20.4z"/>
					<path id="Path_2_" class="st0" d="M141.4,17.7c0.6,0.1,0.9,0.1,1.2,0.1c1.8-0.1,3.6-0.2,5.4-0.3c0.2,0,0.5-0.3,0.6-0.5
						c0.8-1.7,1-3.5,0.8-5.3c-0.1-0.5-0.2-1-0.2-1.5c-1.1-1-2.9-1.3-3.7-3.1c0.4-0.1,0.8-0.3,1.1-0.4c1.4-0.2,2.8-0.3,4.2-0.6
						c0.5-0.1,1-0.5,1.4-1c0.4-0.5,0.9-0.7,1.4-0.5c1.2,0.4,2.3,0.8,3.4,1.3c0.2,0.1,0.4,0.3,0.5,0.5c0.5,0.8,0.5,1.6-0.6,1.9
						c-1.6,0.4-3.2,0.7-4.8,1.1c-0.5,0.1-0.9,0.2-1.3,0.3c-0.4,0.1-0.6,0.4-0.3,0.7c0.6,0.6,1.2,1.3,1.8,1.9
						c0.4,0.3,0.5,0.7,0.4,1.1c-0.3,0.9-0.5,1.8-0.9,2.7c-0.3,0.8-0.2,1.1,0.7,1.1c0.9,0,1.8,0,2.7-0.2c0.7-0.1,1.4-0.4,2-0.6
						c0.8-0.3,1.4-0.2,2.1,0.2c0.3,0.2,0.8,0.3,1.1,0.6c0.5,0.4,1,0.9,1.4,1.4c0.1,0.1,0,0.6-0.2,0.6c-0.3,0.2-0.7,0.4-1.1,0.4
						c-1,0-2-0.1-3-0.3c-2-0.4-4-0.3-6-0.1c-2.5,0.2-5,0.5-7.4,0.8c-0.1,0-0.2,0-0.3,0.1c-1,0.6-1.8,0.1-2.4-0.7
						C141.5,19,141.6,18.3,141.4,17.7z"/>
					<path id="Path_3_" class="st0" d="M297.5,4.7c0.6,0,1.1-0.1,1.5,0c1.9,0.4,3.4,1.5,4.4,3.3c0.4,0.6,0.6,1.3,0.3,2.1
						c-0.3,0.9-0.5,1.8-0.9,2.6c-0.4,0.8-0.7,0.9-1.5,0.6c-1.2-0.4-2.3-0.4-3.5,0.1c-0.7,0.3-1.5,0.4-2.2,0.7
						c-0.2,0.1-0.4,0.2-0.5,0.4c-0.9,1-1.7,2.1-2.6,3.1c-0.4,0.4-0.8,0.8-1.1,1.2c-0.3,0.4-0.2,0.7,0.3,0.7c1.3,0.1,2.4-0.2,3.6-0.7
						c0.2-0.1,0.3-0.5,0.3-0.7c-0.1-0.5-0.3-0.9-0.4-1.4c-0.1-0.4,0-1,0.6-0.8c1.6,0.6,3.2,1.2,4.2,2.9c0.5,1,0.6,2.1,0.2,3.2
						c-0.1,0.2-0.3,0.4-0.5,0.6c-0.4,0.4-0.8,0.8-1.1,1.2c-0.4,0.5-0.7,0.5-1-0.1c-0.2-0.4-0.4-0.8-0.4-1.2
						c-0.1-0.8-0.7-1.4-1.4-1.3c-2.1,0.2-4.2,0.6-6.2,1.3c-0.5,0.2-0.9,0.4-1.3,0.6c-0.6,0.4-1.1,0.1-1.2-0.6
						c-0.1-0.8-0.2-1.6-0.2-2.5c0-0.3,0.3-0.6,0.5-0.8c0.1-0.1,0.4-0.2,0.5-0.2c1.6,0.1,2-1.3,2.8-2.4c0.2-0.3,0.3-0.7,0.5-1
						c0.4-0.8,0.4-1.7-0.1-2.4c-0.4-0.5-0.1-0.9,0.2-1.2c0.3-0.3,0.7-0.3,1,0.1c0.1,0.1,0.3,0.2,0.5,0.2c0.5,0.2,1,0.5,1.5,0.8
						c0.6,0.4,1,0.7,1.7,0.1c0.4-0.4,1.1-0.5,1.6-0.7c1.8-0.6,2.3-2.5,1.6-4C298.6,7.4,298.1,6.1,297.5,4.7z"/>
					<path id="Path_4_" class="st0" d="M316.7,24c0.2-0.7,0.8-0.6,1.2-0.7c0.6-0.1,1.2-0.1,1.7-0.1c0.6-0.1,1-0.3,1.2-0.9
						c0.5-1.2,0.6-2.4,0.6-3.6c0-2.4-0.1-4.8-0.1-7.1c0-1.5,0.1-3,0.1-4.5c0-0.9-0.5-1.5-1.4-1.3c-1.9,0.3-3.8,0.7-5.7,1.2
						c-0.8,0.2-1.5-0.1-2.1-0.4c-0.8-0.4-1.6-0.9-2.4-1.4c-0.6-0.3-0.6-0.7,0-1c0.3-0.2,0.8-0.4,1.1-0.4c3.3,0,6.6-0.1,9.9,0
						c1.6,0.1,2.6,1.2,3.1,2.8c0.2,0.5,0.3,1,0.3,1.6c0.2,3.7,0.3,7.4,0.5,11.1c0,0.7,0.3,1.4,0.5,2c0.4,1.2-0.1,2.3-0.9,3.1
						c-0.7,0.7-1.6,1.3-2.4,1.9c0,0-0.1,0-0.1,0.1c-1.3,0.9-1.3,0.9-2.2-0.3C319.5,25.5,317.3,24.2,316.7,24z"/>
					<path id="Path_5_" class="st0" d="M58,15c0.5,0.2,0.9,0.4,1.4,0.6c1.1,0.7,2.1,1.5,2.9,2.6c0.7,1,0.8,2,0.8,3.1
						c0,1.2-1.3,2.1-2.4,1.8c-0.3-0.1-0.6-0.5-0.7-0.8c-0.2-0.6-0.3-1.3-0.4-2c0-0.2-0.3-0.4-0.4-0.4c-2.1,0.3-4.3,0.1-6.3,1.1
						c-0.8,0.4-1.6,1.1-2.4,1.6c-0.2,0.1-0.6,0.1-0.8,0c-0.4-0.6-0.6-1.2-0.4-2c0.1-0.5,0.2-1,0.2-1.5c0-0.6,0.2-0.8,0.7-0.9
						c0.7-0.1,1.4,0,2-0.7c0.8-1,1.6-2,1.8-3.4c0.1-0.6,0-1.1-0.5-1.5c-0.4-0.3-0.4-0.7-0.3-1.2c0.2-0.5,0.6-0.5,0.9-0.4
						c1.1,0.2,2.2,0.3,3.2,0.6c1.6,0.4,2.8-0.4,3.7-1.7c0.9-1.3,0.6-3.3-0.4-4.7c-0.2-0.2-0.3-0.5-0.4-0.8c-0.1-0.2-0.1-0.5-0.1-0.8
						c0.3,0,0.7-0.1,0.9,0c0.7,0.3,1.4,0.6,2,1c1,0.8,1.6,1.8,1.9,3.1c0.1,0.4,0.1,0.8,0.2,1.2c0.1,1.1-0.4,1.8-1.5,2.1
						c-1.6,0.4-3.1,0.9-4.7,1.4c-0.1,0-0.2,0.1-0.3,0.1c-1.2-0.2-1.7,0.8-2.1,1.7c-0.6,1.5-1.6,2.7-2.6,3.9
						c-0.1,0.1-0.1,0.4-0.1,0.6c0,0.1,0.3,0.2,0.4,0.2c1.2-0.3,2.4-0.5,3.6-0.8c0.7-0.2,0.8-0.5,0.4-1.2c-0.2-0.4-0.4-0.7-0.6-1.1
						c-0.1-0.2-0.1-0.4-0.2-0.6C57.9,15.2,58,15.1,58,15z"/>
					<path id="Path_6_" class="st0" d="M8.8,8.3c1.5-0.1,2.9-0.5,4.1-1.2c0.4-0.3,0.5-0.5,0.3-0.9c-0.2-0.6-0.4-1.2-0.5-1.8
						c-0.1-0.6,0.2-0.8,0.7-0.7c2.2,0.5,4.2,2.5,4.8,4.7c0.3,0.9,0.1,1.7-0.7,2.2c-0.8,0.5-1.6,0.9-2.5,1.2
						c-0.7,0.2-0.9-0.1-0.9-0.9c0,0,0,0,0-0.1c0-2.1-0.1-1.9-1.8-1.7c-1.8,0.2-3.5,0.9-5.1,2.2C6.1,12,4.8,12.5,3.5,13
						c-1,0.4-1.9-0.6-2-2C1.4,9.6,1.8,8.8,3,8.5C4.2,8.2,5,7.4,5.5,6.3C6.2,5.2,6.9,4,7.5,2.7c0.3-0.5,0.3-1.2,0.4-1.8
						C7.9,0.1,8.3-0.2,9,0.2c1.1,0.6,1.7,1.9,2.1,3.1c0.3,0.7-0.3,1.2-0.8,1.6C9.7,5.5,9,6.1,8.3,6.6C8.3,6.7,8.1,6.8,8.1,6.9
						C7.9,7.2,7.7,7.6,7.6,8c0.3,0.1,0.6,0.2,1,0.3C8.7,8.3,8.8,8.3,8.8,8.3z"/>
					<path id="Shape_5_" class="st0" d="M314.8,9.3c0.5,0.1,1.1,0.2,1.8,0.4c0.4,0.1,0.9,1,0.9,1.4c-0.1,0.5-0.9,1.1-1.6,1.2
						c-1.2,0.1-2.2,0.8-3,1.7c-0.3,0.4-0.2,0.6,0.3,0.7c1.2,0.3,2.5,0.5,3.7,0.9c0.3,0.1,0.7,0.4,0.9,0.7c0.4,0.5,0.3,0.8-0.1,1.3
						c-0.4,0.4-0.7,0.9-0.9,1.4c-0.1,0.3,0,0.8,0.2,1.1c0.4,0.6,0.1,1.1-0.1,1.6c-0.1,0.2-0.7,0.3-1,0.2c-1.6-0.3-3.2,0.1-4.7,0.5
						c-0.2,0.1-0.4,0.4-0.6,0.5c-0.3,0.2-0.7,0.4-1,0.4c-0.5,0-0.8-0.5-0.8-1c0.1-1.6-0.7-2.6-1.7-3.6c-0.5-0.5-0.4-1,0.1-1.3
						c0,0,0.1-0.1,0.1-0.1c0.8,0.4,1.1-0.4,1.7-0.8c0.7-0.5,1.5-1,2.2-1.5c0.2-0.1,0.4-0.2,0.4-0.4c0.2-0.4,0.3-0.9,0.5-1.3
						c-0.4-0.1-0.7-0.3-1.1-0.4c-0.6-0.1-1.3-0.1-1.9-0.2c-0.1,0-0.3,0-0.4,0c-0.3-0.3-0.7-0.6-0.8-1c-0.1-0.6,0.5-0.6,0.9-0.6
						c1.1,0,2.1-0.5,3.1-1.2c0.4-0.3,0.8-0.4,1.3-0.5C313.6,9.4,314.1,9.4,314.8,9.3z M309.1,17.8c0.2,0.3,0.5,0.5,0.7,0.8
						c0.2,0.3,0.2,0.7,0.3,1c0.2,0.5,0.5,0.8,1,0.6c0.5-0.2,0.9-0.4,1.4-0.6c0.7-0.2,1-0.7,1.1-1.4c0.1-0.5-0.2-0.9-0.6-0.9
						C311.7,17.5,310.5,17.7,309.1,17.8z"/>
					<path id="Path_7_" class="st0" d="M223.4,25.1c-0.4-0.5-0.7-0.8-1-1.2c-0.4-0.4-0.8-0.9-0.7-1.6c2.4,0.5,4.7-1.4,5-4
						c0.1-0.8-0.3-1.2-0.8-1.5c-0.5-0.3-0.9-0.2-1.3,0.2c-0.8,0.7-1.6,1.5-2.6,1.7c-0.3,0.1-0.7,0-0.8-0.2c-0.2-0.4-0.2-0.9,0.2-1.2
						c0.2-0.2,0.4-0.3,0.6-0.4c1.2-0.6,1.9-1.8,2.7-3c0.3-0.5-0.2-2.3-0.7-2.5c-0.2-0.1-0.6,0.1-0.9,0.3c-0.9,0.6-1.7,1.3-2.6,2
						c-0.3,0.2-0.6,0.1-0.9,0.2c0.1-0.3,0.2-0.8,0.4-1c1.2-1.3,2-2.8,2.7-4.5c0.4-0.9,0.6-1.8,0.4-2.8c-0.2-0.7,0.2-1.4,0.8-1.8
						c0.5-0.3,1,0,1.4,0.4c0.6,0.8,1,1.6,1.5,2.5c0.1,0.1,0,0.5-0.1,0.6c-0.4,0.6-0.8,1.2-1.2,1.7c-0.6,0.7-0.6,1.3-0.1,2
						c0.4,0.5,0.8,0.9,1.1,1.5c0.3,0.5,0.5,0.9,0.1,1.5c-0.2,0.3-0.3,0.6-0.5,1c0.2,0.7,0.7,1,1.3,1.2c1.2,0.5,1.7,1.6,1.3,2.9
						c-0.2,0.8-0.6,1.6-1,2.3c-1,1.6-2.3,2.7-3.8,3.5C223.6,25,223.4,25.1,223.4,25.1z"/>
					<path id="Path_8_" class="st0" d="M188.3,22c-0.7,0.2-1.2,1-2.1,0.7c-1.5-0.6-3.1-0.2-4.6-0.1c-1.6,0.1-3.2,0.2-4.8,0.4
						c-0.4,0-0.8,0.2-1.2,0.2c-0.2,0-0.3,0.1-0.5,0c-0.4-0.1-1-2.2-0.7-2.5c0.2-0.2,0.5-0.2,0.8-0.1c1.1,0.1,2.2,0.2,3.3,0.3
						c0.2,0,0.5,0.1,0.7,0c0.3-0.2,0.7-0.5,0.7-0.8c0.1-0.5,0.2-1.1-0.5-1.3c-0.4-0.1-0.7-0.2-1.1-0.4c-0.3-0.1-0.5-0.2-0.7-0.5
						c-0.1-0.1-0.2-0.5-0.2-0.7c0-0.1,0.3-0.3,0.5-0.3c1.2-0.2,1.7-0.8,1.6-1.8c-0.1-0.6-0.3-0.8-0.8-0.7c-0.6,0.2-1.2-0.1-1.7-0.5
						c-0.2-0.2-0.4-0.5-0.3-0.7c0.1-0.3,0.4-0.5,0.6-0.6c0.5-0.2,1-0.1,1.5-0.3c0.6-0.2,1.1-0.6,1.6-1c0.4-0.3,0.6-0.5,1.1-0.3
						c0.5,0.3,1.2,0.2,1.8,0.4c0.2,0,0.5,0.2,0.6,0.4c0,0.2,0,0.6-0.2,0.8c-0.5,0.5-1.1,1-1.5,1.5c-0.2,0.2-0.2,0.6-0.3,0.8
						c0,0.1,0.3,0.2,0.5,0.3c0.4,0.2,0.9,0.3,1.3,0.6c1,0.6,1,0.9,0,1.9c-0.3,0.3-0.7,0.4-1,0.6c-0.5,0.3-1,0.6-1,1.4
						c0,0.8,0.4,1.2,1.1,1c0.8-0.2,1.7-0.5,2.5-0.7c0.3-0.1,0.6-0.1,0.9,0c0.5,0.2,1,0.5,1.5,0.8c0.3,0.2,0.5,0.6,0.7,0.8
						C188.4,21.9,188.3,22,188.3,22z"/>
					<path id="Shape_6_" class="st0" d="M15.6,20.9c-0.2,1-0.8,1.2-1.6,1.4c-1.6,0.2-3.1,0.4-4.6,0.7c-1,0.2-2,0.6-2.9,1.1
						c-0.6,0.3-0.9,0.3-1.1-0.4c-0.3-0.9-0.4-1.9-0.7-2.9c-0.5-1.5-0.9-3.1-2.1-4.2c-0.1-0.2-0.3-0.5-0.2-0.6
						c0.1-0.2,0.4-0.4,0.6-0.4c0.3,0,0.6,0.1,0.8,0.1C5.4,16,6.7,16,8.1,15.2c1.6-1,3.5-1.3,5.3-1.2c1.4,0.1,2,0.8,2.1,2.2
						c0,0.7,0.1,1.5-0.4,2.2C14.6,19.2,14.8,20.1,15.6,20.9z M9.7,16.3c-0.3,0-0.6,0.1-0.9,0.1c-0.3,0-0.7,0.1-1.1,0.1
						c-1.1,0-1.8,1-1.7,2.1c0.1,0.9,0.5,1.8,1.1,2.4c0.2,0.2,0.6,0.4,0.8,0.3c0.8-0.2,1.7-0.5,2.5-0.9c0.5-0.2,1.2-2.2,1.1-2.8
						C11.4,16.8,10.8,16.3,9.7,16.3z"/>
					<path id="Path_9_" class="st0" d="M263.1,10.6c0-0.4-0.1-0.8-0.1-1.2c0-1.4-0.5-1.8-1.7-2c-0.4-0.1-0.9-0.3-1.4-0.5
						c0.4-0.9,0.8-1.6,1.2-2.3c0.1-0.2,0.4-0.4,0.6-0.4c0.9-0.2,1.8-0.4,2.6-0.4c0.5,0,1.1,0.2,1.6,0.5c0.5,0.3,0.3,0.9,0.1,1.4
						c-0.4,1-0.8,1.9-1.1,2.9c-0.1,0.3,0.1,0.7,0.2,1c0.4,0.8,1,1.4,1.1,2.3c0.3,2.1-1,3.7-3,3.3c-0.5-0.1-0.7,0-0.7,0.6
						c-0.1,2.5-0.3,5,0.3,7.5c0.1,0.6-0.2,0.8-0.5,1.2c-0.5,0.8-0.5,0.8-1.2,0.2c-0.9-0.8-1.1-1.3-0.7-2.5c0.2-0.6,0.3-1.2,0.3-1.8
						c0-2.1,0-4.2,0.1-6.2c0-1.2-0.7-2.1-0.9-3.1c0-0.2-0.2-0.3-0.2-0.5c0-0.2,0-0.4,0.1-0.5c0.1-0.1,0.3,0,0.5,0.1
						c0.9,0.8,1.7,1.7,2.2,2.9c0.1,0.1,0.2,0.3,0.3,0.3c0.9,0.1,2-1.2,1.8-2.2c-0.1-0.7-0.5-1-1.1-0.7c-0.1,0-0.2,0.1-0.3,0.1
						C263.3,10.7,263.2,10.7,263.1,10.6z"/>
					<path id="Path_10_" class="st0" d="M171.7,6.5c0.2,0.4,0.3,0.7,0.6,1c0.3,0.3,0.6,0.5,0.9,0.8c0.3,0.2,0.7,0.3,0.8,0.6
						c0.1,0.2-0.2,0.6-0.4,0.9c-0.3,0.4-0.8,0.7-1.2,1.1c-0.5,0.4-0.5,0.8,0,1.2c0.5,0.3,1.2,0.6,1.7,0.7c0.7,0.2,1,0.3,1,1.1
						c0,0.5,0,1-0.1,1.5c-0.1,0.6-0.4,0.7-0.9,0.3c-0.5-0.5-1-0.9-1.5-1.3c-0.2-0.1-0.4-0.2-0.6-0.2c-0.1,0.1-0.2,0.4-0.2,0.6
						c0.1,1.9,0.3,3.8,0.5,5.7c0.1,1.4,0.1,2.8-0.6,4.1c-0.1,0.3-0.5,0.5-0.8,0.7c-0.2-0.3-0.4-0.6-0.5-0.9
						c-0.2-0.7-0.2-1.3-0.2-2.1c0.1-2,0-4,0-6.2c-0.3,0.2-0.5,0.3-0.7,0.4c-0.7,0.5-1.4,1.2-2.2,1.6c-0.9,0.5-1.3,0.3-1.7-0.9
						c0.4-0.2,0.8-0.4,1.2-0.5c1.2-0.5,2.1-1.3,2.3-2.7c0.1-0.7,0-0.8-0.6-0.7c-0.3,0-0.7-0.2-1.1-0.3c-0.8-0.4-1.3-1.1-1.6-1.9
						c-0.2-0.5,0.1-1,0.6-0.9c1.1,0.2,2.2,0.1,3.2-0.7c0.3-0.3,0.6-0.7,0.7-1.1C170.7,7.4,171,6.9,171.7,6.5z"/>
					<path id="Path_11_" class="st0" d="M219.4,7.3c-0.1,0.3-0.2,0.7-0.5,0.9c-0.8,1-1.7,2-2.5,3c-0.2,0.2-0.2,0.7-0.1,0.9
						c0.8,1.2,0.9,2.4,0.6,3.8c-0.2,1,0.1,2,0.2,3.1c0.1,1.3,0.1,2.6,0.1,3.9c0,0.6-0.2,1.1-0.8,1.3c-0.5,0.2-1-0.2-1.3-0.9
						c-0.1-0.2-0.1-0.4-0.2-0.5c-0.5-0.5-0.1-0.8,0.1-1.3c0.3-0.6,0.5-1.4,0.5-2.1c0-1.9-0.2-3.8-0.3-5.6c0-0.5-0.4-0.5-0.7-0.3
						c-0.4,0.2-0.7,0.5-1.1,0.7c-0.3,0.3-0.6,0.7-1.1,0.2c-0.4-0.4-0.5-1.1-0.1-1.6c0.3-0.4,0.6-0.7,0.8-1.2c1.3-2.2,2-4.5,2.4-7
						c0.1-0.3,0.3-0.9,0.4-0.9c0.4,0,1,0,1.3,0.3c0.8,0.8,1.4,1.6,2.1,2.5C219.3,6.7,219.3,7,219.4,7.3z"/>
					<path id="Path_12_" class="st0" d="M202.2,5.9c0.3-0.5,0.5-1,0.7-1.5c0.2-0.5,0.7-0.7,1.2-0.7c0.8,0,1.6,0.1,2.5,0.1
						c0.7,0,1.1,0.5,1.4,1c0.3,0.6-0.1,1.1-0.5,1.3c-0.7,0.4-1,1.2-1.3,1.9c-0.1,0.2-0.1,0.7,0.1,0.9c0.2,0.2,0.7,0.3,1,0.3
						c0.3,0,0.5-0.1,0.9-0.2c0,1-0.7,1.4-1.2,1.9c-0.4,0.3-0.9,0.5-1.3,0.8c-0.3,0.2-0.7,0.5-1,0.9c-0.5,0.5-1,0.5-1.5,0
						c-0.6-0.7-0.7-1.4-0.3-2.2c0.4-1.1,0.8-2.2,1.1-3.2c-0.6-0.2-1.1-0.4-1.6-0.5c-0.2,0-0.5,0.1-0.6,0.3c-1.1,1.7-1.6,3.4-1.1,5.4
						c0.1,0.5-0.1,0.6-0.5,0.6c-1-0.1-1.5-0.9-1.5-1.9c0.1-1.3,0.3-2.6,0.1-3.8c-0.2-0.9,0.1-1.4,0.6-1.9c0.6-0.6,1.2-0.6,1.8-0.1
						C201.6,5.4,201.9,5.7,202.2,5.9z"/>
					<path id="Path_13_" class="st0" d="M34.4,24c0.4-0.1,0.6-0.2,0.8-0.2c1.7-0.2,2.3-0.7,2.8-2.4c0.1-0.4,0.2-0.9,0.3-1.3
						c0-0.8,0-1.5,0-2.4c-1-0.1-1.8,0.3-2.6,0.7c-0.8,0.5-1.6,1.1-2.5,1.6c-0.4,0.2-0.9,0.1-1.3-0.1c-0.2-0.1-0.3-0.6-0.3-1
						c0-0.7,0.2-1.4,0.2-2.1c0-1.2,0.6-1.8,1.9-1.8c0.5,0,1-0.1,1.5-0.3c0.2-0.1,0.3-0.4,0.5-0.7c-0.7,0-1.2-0.1-1.8-0.1
						c-0.7,0-1-0.2-1-1c0.8-0.2,1.7-0.4,2.5-0.5c0.2,0,0.4,0,0.6-0.1c1-0.5,1.8,0,2.5,0.5c0.2,0.1,0.3,0.6,0.2,0.7
						c-0.4,0.7-0.8,1.4-1.2,2.1c-0.1,0.1-0.4,0.2-0.6,0.2c-0.6,0-1.2-0.1-1.7-0.1c-0.8,0-1.2,0.5-1.2,1.4c0.2,0,0.5,0,0.7,0
						c1.4-0.3,2.9-0.6,4.3-1c1-0.3,2.1,0.4,2,1.4c-0.2,1.6-0.5,3.3-0.8,4.9c-0.3,1.2-1.2,2-2.2,2.7c-0.3,0.2-0.6,0.3-0.8,0.5
						c-0.9,0.6-0.8,0.6-1.6-0.2C35,25,34.8,24.5,34.4,24z"/>
					<path id="Path_14_" class="st0" d="M246.7,9.6c1.3-0.3,2.5-0.6,3.8,0.2c1.3,0.8,1.2,0.8,1.1,2.3c-0.1,1.8-0.1,3.6,0,5.4
						c0.2,2.1,0.5,4.2,0.7,6.2c0.1,1.2-0.7,2-2.1,2.2c-1,0.1-2.3-0.5-2.6-1.4c-0.1-0.1,0.1-0.4,0.2-0.5c0.6-0.4,0.9-1,0.9-1.7
						c0.1-2.2,0.2-4.3,0.3-6.5c0-1.1,0.1-2.2,0-3.3c0-0.5-0.1-1-0.3-1.5c-0.2-0.5-0.4-0.8-1-0.8c-0.4,0-0.7-0.3-1.1-0.4
						C246.6,9.8,246.7,9.7,246.7,9.6z"/>
					<path id="Path_15_" class="st0" d="M178.1,9.4c1.2,0.2,2.5-0.6,2.9-1.9c0.1-0.2,0-0.6-0.2-0.7c-0.3-0.2-0.7-0.3-1-0.5
						c-0.2-0.1-0.5-0.2-0.6-0.4c-0.1-0.1,0.1-0.5,0.3-0.6c0.4-0.5,0.8-0.9,1.2-1.4c0,0,0.1-0.1,0.2-0.1c1,0,2.1-0.2,2.9,0.7
						c0.5,0.5,1,1.1,1.5,1.7c0.4,0.5,0.4,1,0.1,1.5c-0.6,1-1.1,1.9-1.7,2.9c-0.1,0.2-0.4,0.3-0.6,0.3c-1.6-0.1-3.2,0.1-4.6,1.2
						c-0.5,0.3-1.2,0.1-1.2-0.4c-0.2-1.7-1-3.1-1.7-4.5c-0.1-0.2-0.2-0.7-0.1-0.9c0.2-0.4,0.5-0.4,0.9-0.3c1.3,0.5,1.8,1.2,1.9,2.8
						C178.1,8.8,178.1,9.1,178.1,9.4z"/>
					<path id="Path_16_" class="st0" d="M290.8,7.8c0,1.3-0.7,2.1-1.6,2.5c-1.3,0.8-2.7,1.3-4.1,2c-0.5,0.2-0.9,0.5-1.4,0.7
						c-0.2,0.1-0.3,0-0.5,0c0-0.2,0-0.5,0.1-0.6c0.5-0.6,1-1.1,1.5-1.7c0.5-0.6,1-1.3,1.5-2.1c0.4-0.8,0.3-1.6,0.1-2.5
						c-0.1-0.4,0.1-0.9,0.2-1.4c0.4,0.1,0.8,0.1,1.2,0.3c0.5,0.2,1,0.5,1.5,0.6C289.8,5.7,290.8,7,290.8,7.8z"/>
					<path id="Path_17_" class="st0" d="M46.6,12.1c0.7-1.1,1.4-2,2-2.9c0.7-1.2,1.1-2.4,0.2-3.7c-0.1-0.2-0.1-0.5,0-0.7
						c0.1-0.1,0.4-0.2,0.6-0.1c1.1,0.1,2.1,0.4,3.1,1.1c0.9,0.7,0.9,1.6,0.4,2.4c-0.5,0.9-1.3,1.6-2.2,2.1c-1,0.5-1.9,1.1-2.9,1.6
						C47.4,12,47,12,46.6,12.1z"/>
					<path id="Path_18_" class="st0" d="M27.8,14c-1,1.9-1,3.8-1.3,5.6c-0.1,0.9-0.3,1.8-0.4,2.7c-0.2,0.8-1.2,1.2-2.2,0.9
						c-0.2-0.1-0.3-0.1-0.4-0.2c-1.7-0.8-1.7-1.4-0.2-2.5c0.5-0.4,0.9-1,1.3-1.6c0.9-1.5,1.7-3.1,2.6-4.6
						C27.3,14.1,27.6,14.1,27.8,14z"/>
					<path id="Path_19_" class="st0" d="M227.9,9.6c0.3-0.1,0.6-0.3,0.9-0.2c0.9,0.1,1.8,0.2,2.6,0.4c1,0.3,1.6,1.3,2,2.4
						c0.3,0.7,0.1,1.4-0.4,2c-0.5,0.7-1.1,1.1-1.8,0.6c-0.3-0.2-0.6-0.7-0.6-1c0-0.8-0.3-1.3-0.7-1.7c-0.7-0.7-1.3-1.4-2-2
						C227.8,9.8,227.9,9.7,227.9,9.6z"/>
					<path id="Path_20_" class="st0" d="M166.8,4.8c0.2-0.1,0.5-0.3,0.7-0.3c1-0.2,2.1-0.2,3.1-0.5c0.6-0.1,1.1-0.5,1.5-0.9
						c0.4-0.4,0.9-0.3,1.3-0.2c0.4,0.1,0.7,0.3,1.1,0.5c0.6,0.3,0.8,0.7,0.6,1.3c-0.2,0.6-0.6,0.9-1.3,0.9c-1.4,0-2.8-0.1-4.3-0.2
						c-0.5,0-1.1-0.1-1.6-0.2c-0.4,0-0.8-0.1-1.2-0.2C166.8,5,166.8,4.9,166.8,4.8z"/>
					<path id="Path_21_" class="st0" d="M72.7,6.4c0,1.2-0.1,2.4-0.1,3.6c0,0.2,0,0.4,0,0.7c0.1,0.6-0.1,1.2-0.6,1.4
						c-0.5,0.2-0.7-0.1-1.1-0.5c-0.9-1.1-1.1-2.4-0.6-3.8c0.2-0.8,0.4-1.6,0.6-2.3c0.1-0.3,0.4-0.7,0.6-0.8c0.3,0,0.6,0.3,0.8,0.5
						c0.3,0.3,0.4,0.8,0.6,1.2C72.8,6.4,72.7,6.4,72.7,6.4z"/>
					<path id="Path_22_" class="st0" d="M104.6,0.9c0.6,0.4,1.3,0.8,1.9,1.3c0.3,0.3,0,1.1-0.4,1.3c-0.7,0.3-1.4,0.4-2,0.8
						c-0.7,0.5-1.1,0.4-1.5-0.3c-0.1-0.3-0.6-0.3-0.9-0.6c-0.3-0.2-0.5-0.4-0.7-0.7c0,0,0.1-0.3,0.2-0.3c0.3-0.2,0.7-0.3,1-0.5
						c0.5-0.2,1-0.4,1.5-0.7C104,1.2,104.3,1.1,104.6,0.9z"/>
					<path id="Path_23_" class="st0" d="M24,1.4c0.4-0.2,0.8-0.5,1.2-0.5c1.1,0,2.1,0.1,3.2,0.3c1,0.2,1.6,1.5,1,2.2
						c-0.2,0.2-0.6,0.4-0.8,0.4c-1.7-0.2-3.2-1-4.5-2C24.1,1.6,24.1,1.5,24,1.4z"/>
					<path id="Path_24_" class="st0" d="M23.3,8.4c1.1,0,1.8,0.7,2.5,1.4c0.1,0.1,0.2,0.6,0.1,0.7c-0.2,0.3-0.5,0.7-0.7,0.7
						c-0.5,0-1-0.2-1.4-0.4c-0.4-0.2-0.8-0.5-1.2-0.9c-0.2-0.2-0.3-0.5-0.4-0.8c0-0.1,0.3-0.4,0.5-0.5C22.9,8.4,23.2,8.4,23.3,8.4z"
						/>
					<path id="Path_25_" class="st0" d="M29.7,14.2c-0.1,0.1-0.4,0.4-0.7,0.7c-0.2-0.3-0.6-0.5-0.7-0.9c-0.2-0.4-0.3-0.8-0.5-1.2
						c-0.1-0.2,0-0.5,0.1-0.7c0.1-0.1,0.5,0,0.6,0C29.2,12.6,29.7,13.1,29.7,14.2z"/>
					<path id="Path_26_" class="st0" d="M30.6,12.6c0,0.3-0.4,0.6-0.7,0.3c-0.4-0.4-0.8-0.8-1.2-1.3c-0.1-0.1,0-0.3,0.1-0.4
						c0.1-0.1,0.4-0.1,0.5-0.1C29.9,11.3,30.6,12.1,30.6,12.6z"/>
				</g>
				<g id="黑圖_去背">
					<path id="Shape_7_" class="st0" d="M1.5,31.5c0-0.1,0-0.2,0-0.4c0.1-0.2,0.4-1,0.4-1.2c0-0.2-0.1-0.5,0-0.6
						C2.1,29.1,2,28.8,2,28.6c0-0.3,0.1-0.5,0.2-0.8c0.1-0.4,0.1-0.7,0.1-1.1c0,0-0.1-0.1-0.1-0.1c0.1-0.1,0.1-0.1,0.3-0.3
						c2.5,0,5.2,0,7.7,0c0.3-0.8,0.5-1.5,1.1-2c0.1-0.1,0.1-0.2,0.2-0.4c0.2-0.5,0.5-1,0.7-1.5c0.4-0.9,0.8-1.7,1.3-2.5
						c0.3-0.4,0.5-0.8,0.6-1.3c0-0.2,0.2-0.3,0.3-0.5c0.8-1.3,1.7-2.6,2.3-3.9c0.6-1.2,1.4-2.2,2.2-3.2c0.6-0.8,1.3-1.4,2-2.2
						c0.1-0.1,0.1-0.1,0.2-0.2c0.4-0.7,1.1-1.2,1.6-1.9c0.5-0.7,1.2-1.2,1.7-1.9c0.2-0.3,0.5-0.4,0.7-0.6c0.3-0.4,0.6-0.8,0.9-1.1
						c0.5-0.1,0.8-0.2,1.2-0.4C27.6,2.3,28,2,28.5,2.1C28.7,2,28.8,1.8,29,1.8c0.2-0.1,0.5-0.1,0.7-0.2c0.2,0,0.5,0,0.7,0
						c0.2,0,0.5-0.2,0.7-0.1c0.8,0.2,1.6,0.3,2.4,0.6c0.3,0.1,0.6,0.1,0.9,0c1.1-0.4,2.2-0.9,3.1-1.3c0.9-0.2,1.7-0.3,2.5-0.4
						c0.1-0.3,0.5,0,0.6-0.3c0.4,0,0.7,0,1.1,0c0,0.1,0,0.1,0.1,0.1c0.9,0.3,1.7,0.7,2.6,0.9c0.4,0.1,0.8,0.3,1.1,0.5
						c0.4,0.3,0.9,0.6,1.2,0.8c0.3,0.5,0.6,0.9,0.8,1.3c0.2,0.3,0.4,0.7,0.5,1C48,5,48,5.5,48,5.9c0,0.9-0.4,1.7-0.7,2.5
						c-0.6,1.5-1.1,2.4-1.5,4.6c-0.3,0.4,0,0.9-0.2,1.3c-0.2,0.5-0.1,0.9-0.1,1.3c0,0.7-0.1,1.4,0.1,2.1c0.2,0.5,0.1,1.1,0.2,1.6
						c0.1,0.4,0,0.9,0.2,1.2c0.2,0.5,0.2,1.1,0.3,1.6c0.1,0.5,0.1,1.1,0.2,1.7c0.2,0.7,0.4,1.3,0.3,2c0.2,0.1,0.5,0.3,0.7,0.4
						c0.8,0,1.6,0.1,2.4,0c0.8-0.1,1.5,0.3,2.1,0.1c0.2,0,0.3,0.1,0.5,0.1c0,0.2,0,0.4,0,0.5c-0.3,0.3-0.3,0.7-0.3,1
						c-0.1,0.7-0.1,1.4-0.2,2.1c0,0.1-0.1,0.1-0.1,0.2c0,0.1,0.1,0.2,0.1,0.2c-0.1,0.1-0.2,0.2-0.3,0.3c-0.6-0.1-1.3-0.2-1.9-0.2
						c-0.7,0-1.3,0-2,0c-0.1,1.1,0.1,2.1-0.2,3.1c-0.1,0.4-0.1,0.7-0.2,1.1c0,0.4,0,0.8-0.2,1.2c-0.1,0.3,0,0.8,0,1.1
						c0,0.4-0.1,0.7-0.2,1.1c0,0.5-0.3,1-0.2,1.5c-0.3,0.3-0.2,0.6-0.2,1c0,0.4-0.2,0.6-0.2,1c0,0.8-0.3,1.5-0.4,2.3
						c0,0.2-0.1,0.3-0.1,0.5c0,0.7-0.2,1.3-0.5,1.9c0.2,0.1,0.4,0.1,0.6,0.1c0.8,0.1,1.5-0.1,2.3,0.2c0.1,0,0.2-0.1,0.4-0.2
						c0.1,0.2,0.2,0.5,0.2,0.6c-0.3,0.4,0.1,0.9-0.3,1.2c0,1-0.3,2-0.5,2.9c0,0,0.1,0.1,0.1,0.1c-0.1,0.1-0.2,0.1-0.4,0.3
						c-0.5-0.1-1.2-0.2-1.8-0.2c-0.6,0-1.3,0.1-2-0.2c-0.1,0.5-0.2,0.9-0.4,1.3c-0.3,0.6-0.2,1.3-0.7,1.9c-0.1,0.2-0.2,0.4-0.3,0.6
						s-0.3,0.4-0.4,0.6c-0.1,0.2-0.3,0.5-0.4,0.7c-0.1,0.2-0.3,0.5-0.3,0.6c0.1,0.4-0.5,0.2-0.4,0.5c-0.7,1.1-1.4,2.2-2.2,3.3
						c-0.6,0.7-1.1,1.3-1.1,2.3c-0.4,0.3,0,0.8-0.3,1.1c0,0.4-0.1,0.8-0.2,1.1c-0.1,0.4-0.1,0.8-0.2,1.1c-0.1,0.4-0.1,0.8-0.2,1.1
						c-0.2,0.3-0.1,0.6-0.1,0.9c-0.1,0.3-0.2,0.6-0.2,0.9c0,0.2,0,0.4,0,0.6c0,0.2-0.1,0.4,0,0.5c0.1,0.2,0.1,0.4,0.2,0.5
						c0.2,0.2,0,0.3,0,0.5c0.2,0.6,0.2,1.3,0.1,1.9c-0.1,0.5-0.2,1.1-0.3,1.6c0,0.7-0.1,1.3-0.4,1.8c-0.5,0.3-0.8,0.7-1.1,0.9
						c-0.8-0.1-1.5-0.2-2.2-0.3c-0.5-0.8-1.3-0.7-2.1-0.6c-0.3,0-0.6,0.2-0.9,0.3c-0.3,0.1-0.6,0.2-0.8,0.4
						c-0.2,0.3-0.6,0.2-0.8,0.5c-0.8,0-1.5,0-2.3,0c-0.1-0.1-0.3-0.2-0.4-0.3c-0.2-0.1-0.3-0.3-0.5-0.4c-0.4-0.3-0.9-0.6-1.1-1
						c-0.4-0.6-0.8-1.4-1.1-2.1c-0.7-1.5-1.5-2.9-2.7-4c-0.1-0.1-0.2-0.3-0.3-0.5c-0.1-0.1-0.3-0.2-0.4-0.3c-0.5-0.7-1-1.4-1.6-2.1
						c-0.3-0.3-0.6-0.7-0.8-1.1c-0.2-0.5-0.6-0.8-1-1.1c-0.5-0.4-1-0.6-1.3-1.2c-0.5-0.7-1.1-1.3-1.6-2c-0.7-0.9-1.3-1.8-2-2.7
						c-0.7-1-1.5-1.9-2.2-2.9c0,0-0.1-0.1-0.1-0.1c-0.3-1-0.8-2-1.3-2.9c-0.4-0.6-0.4-1.3-0.6-1.9c-0.1-0.4-0.1-0.8-0.4-1
						c-0.2,0.1-0.4,0.1-0.5,0.1c-1,0-2,0-3,0c-0.2,0-0.4,0.1-0.6,0.1c-0.1-0.1-0.3-0.1-0.4-0.2c0.1-0.4,0-0.8,0.2-1.1
						c0.3-0.6,0.3-1.3,0.4-1.9c0.1-0.7,0.3-1.4,0.5-2.1c0.1-0.6,0.2-1.3,0.4-1.9c0.1-0.4,0-0.8,0.2-1.1c0.2-0.4,0-0.9,0.3-1.2
						c0.1-0.9,0.4-1.8,0.5-2.8c0.1-0.4,0.1-0.8,0.2-1.1c0.2-0.9,0.5-1.9,0.6-2.9c0-0.2,0.1-0.4,0.2-0.6c0-0.2-0.1-0.5,0.2-0.6
						c-0.1-0.6,0.4-1.1,0.1-1.7c-0.5,0-0.9,0-1.4,0c-0.5,0-0.9,0-1.4,0c-0.4,0-0.9-0.1-1.2,0.1C1.8,31.6,1.6,31.6,1.5,31.5z
						 M44.3,26.2c0-0.3,0.1-0.7,0-0.9c-0.2-0.3-0.1-0.6-0.2-0.8c-0.1-0.3-0.1-0.6-0.2-0.9c-0.1-0.3-0.1-0.5-0.2-0.8
						c-0.1-0.5-0.1-1.1-0.2-1.6c-0.1-0.4,0-0.8-0.2-1.1c-0.1-0.3-0.1-0.5-0.1-0.8c-0.1-0.3-0.1-0.6-0.2-0.9
						c-0.1-0.3-0.2-0.5-0.2-0.8c0.1-1.3-0.1-2.6,0.1-4c0.2-0.8,0.2-1.5,0.4-2.3c0.1-0.4,0.2-0.7,0.2-1c0.1-0.3,0.3-0.5,0.4-0.7
						c0.4-0.9,0.7-1.7,1-2.6c0.3-0.6,0.5-1.3,0.4-2C45.2,5,45,4.9,45,4.8c-0.2-0.6-0.7-0.9-1.2-1.1c-0.7-0.3-1.5-0.4-2.2-0.7
						c-0.3-0.1-0.7-0.2-1-0.1c-0.6,0.2-1.2,0.3-1.8,0.4c-0.4,0.1-0.8,0.2-1.2,0.4c-0.4,0.2-0.8,0.4-1.3,0.5
						c-0.4,0.2-0.8,0.4-1.3,0.6c0,0-0.1,0-0.1,0c0-0.2-0.1-0.4-0.4-0.2c0,0.1,0,0.3,0,0.4c-0.1,0.1-0.2-0.1-0.4-0.1
						C33.9,5,33.5,5,33,4.8c-0.9-0.4-1.9-0.7-2.8-0.6c-0.3,0.2-0.5,0.4-0.8,0.5c-0.3,0-0.6,0-0.8,0c-0.2,0.1-0.3,0.1-0.5,0.2
						c-0.4,0.2-0.7,0.4-1,0.7c-0.9,1-1.8,2-2.7,3c-0.6,0.7-1.2,1.4-1.9,2c-0.1,0.2-0.4,0.3-0.4,0.4c-0.2,0.5-0.6,0.7-0.9,1
						c-0.3,0.4-0.6,0.8-0.9,1.1c-0.4,0.4-0.8,0.9-1.1,1.5c-0.3,0.6-0.6,1.2-0.9,1.7c-0.5,0.7-0.9,1.4-1.2,2.1
						c-0.4,0.8-1,1.5-1.2,2.5c-0.4,0.4-0.5,0.9-0.8,1.4c-0.6,1.1-1,2.3-1.8,3.3c-0.1,0.2-0.3,0.4-0.1,0.7c0.5-0.1,1.1,0.1,1.6-0.1
						c0.4,0.3,0.3,0.7,0.2,1c-0.3,0.8-0.2,1.7-0.5,2.5c-0.2,0.6-0.2,1.2-0.2,1.8c-0.4,0.1-0.7,0.1-1,0.2c-0.3,0-0.6-0.1-0.9-0.1
						c-0.4,0-0.7,0-1.1,0s-0.7,0-1.1,0c-0.1,0.3-0.3,0.5-0.3,0.8c-0.2,0.8-0.5,1.7-0.5,2.6c0,0.2-0.1,0.4-0.2,0.6
						c0,0.2,0,0.5-0.1,0.7C9.2,36.9,9,37.4,9,38c0,0.1,0.1,0.4,0,0.4c-0.3,0.3,0,0.7-0.2,1c-0.2,0.3-0.2,0.6-0.2,1
						c0,0.1,0,0.3,0,0.3c-0.2,0.2-0.1,0.5-0.2,0.7c-0.1,0.3-0.2,0.5-0.2,0.8c0.1,1-0.1,2,0.1,3c0.1,0.5,0,1.1,0,1.7
						c0,0.6,0.1,1.1,0.2,1.7c0.1,0.1,0.2,0.2,0.3,0.3c0.1,0.3,0.2,0.5,0.2,0.7c0.1,0.3,0.1,0.5,0.2,0.8c0.3,0.9,0.4,1.8,1,2.6
						c0.2,0.2,0.3,0.6,0.4,1c0.2,0.5,0.4,1.1,0.7,1.5c0.1,0.2,0.3,0.4,0.5,0.6c0.5,0.7,1,1.5,1.6,2.2c0.7,0.9,1.5,1.8,2.2,2.8
						c0.2,0.4,0.6,0.6,0.8,1c0.3,0.5,0.6,0.8,1.1,1.1c0.3,0.2,0.7,0.4,0.9,0.7c0.6,0.8,1.3,1.6,1.9,2.4c0.4,0.6,0.9,1.1,1.4,1.7
						s0.9,1.1,1.4,1.6c0.3,0.3,0.6,0.6,0.7,0.7c0.1,0.3,0.2,0.5,0.3,0.6c0.5,1,1.1,2,1.6,3c0.3,0.5,0.6,1.1,1.1,1.3
						c0.4,0,0.7,0,1.1,0c0.5-0.3,1.1-0.6,1.6-0.8c0.5-0.2,1.1-0.2,1.6-0.5c0.1,0,0.3-0.1,0.3,0c0.2,0.2,0.5,0.1,0.7,0.2
						c0.5,0.2,1.2,0,1.6,0.5c0.1-0.3,0.2-0.6,0.2-0.8c0-0.3,0-0.6,0-1c0-0.5,0-0.9,0-1.4c0-0.1,0-0.3,0-0.4c-0.2-0.5-0.3-1-0.2-1.6
						c0.1-0.8,0.1-1.5,0.4-2.3c0.1-0.5,0.2-1,0.3-1.6c0.1-0.5,0.2-1.1,0.3-1.5c0.1-0.4,0.1-0.7,0.2-1.1c0.2-0.6,0.4-1.1,0.3-1.6
						c0.1-0.2,0.2-0.5,0.4-0.6c0.3-0.4,0.5-0.8,0.8-1.2c0.4-0.6,0.8-1.2,1.3-1.8c0.6-0.7,1-1.6,1.5-2.4c0.6-1.1,1.4-2.1,1.6-3.3
						c0.1-0.3,0.1-0.5,0.2-0.9c-0.7,0.1-1.2-0.2-1.7-0.3c-0.5-0.1-0.9-0.4-1.2-0.9c-0.1-0.3-0.3-0.5-0.6-0.6
						c-0.5,0.6-0.3,1.5-0.8,1.9c-0.2-0.1-0.3-0.1-0.5-0.1c-1.1,0-2.2,0-3.3,0c-1.1,0-2.2-0.3-3.3-0.2c-1,0.1-2,0-3,0
						c-0.6,0-1.2,0-1.7,0c0-0.1-0.1-0.2,0-0.2c0.3-1.1,0.5-2.1,0.7-3.2c0.2-0.8,0.4-1.5,0.5-2.2c0.1-0.4,0.1-0.8,0.2-1.1
						c0.1-0.3,0.2-0.6,0.2-1c0.4-0.3,0.1-0.7,0.3-1.1c0.2-0.3,0.1-0.8,0.2-1.2s0.1-0.7,0.2-1.1c0.4-0.9,0.4-1.9,0.6-2.9
						c0.1-0.7,0.4-1.3,0.4-2c0.3-0.3,0-0.7,0.3-1c0.2-0.3,0.1-0.8,0.2-1.1c0.1-0.4,0.1-0.8,0.2-1.1c0.3-0.9,0.4-1.9,0.6-2.8
						c0.2-0.9,0.4-1.8,0.6-2.7c1.1-0.2,2.2,0.1,3.2,0.1c2.5,0,5,0,7.5,0c0.2,0,0.4,0,0.6,0c0,0.2,0,0.4-0.1,0.5
						c0,0.1-0.1,0.2-0.2,0.5c0.6-0.3,0.9-0.6,1.3-0.8C43.3,26.3,43.8,26.3,44.3,26.2z M37,46.8c0.1-0.1,0.2-0.2,0.2-0.3
						c0.2-0.8,0.3-1.7,0.6-2.5c0.1-0.5,0.2-1,0.3-1.5c0.1-0.5,0.2-1,0.3-1.5c0.3-0.9,0.4-1.9,0.6-2.9c0.2-0.9,0.4-1.8,0.6-2.8
						c0.1-0.5,0.1-1,0.3-1.4c0.2-0.5,0.2-1,0.3-1.5c0.1-0.5,0.2-0.9,0.4-1.5c-0.1-0.1-0.2-0.2-0.2-0.2c-2.4,0-4.7,0-7.1,0
						c-0.5,1.6-0.9,3.3-1.2,5c0.4,0.1,0.7,0.2,1,0.2c1.7,0.1,3.4,0.1,5.1,0.2c0.2,0,0.5,0,0.8,0c-0.5,1.5-0.9,2.9-1.2,4.3
						c0,0.1-0.1,0.2-0.2,0.3c-0.2-0.1-0.4-0.2-0.5-0.2c-1.1,0.1-2.2-0.1-3.3-0.2c-0.4,0-0.9,0-1.4-0.1c-0.3-0.1-0.9-0.2-1.2,0.2
						c0.1,1-0.4,1.9-0.6,2.9s-0.4,2-0.7,3c0.9,0.1,1.7-0.1,2.5,0.2C33.9,46.5,35.5,46.8,37,46.8z M42.7,46.1
						c0.2-0.4,0.4-0.8,0.5-1.2c0.1-0.2,0.1-0.4,0.2-0.5c0.1-0.5,0-1,0.2-1.4c0.3-0.5,0-0.9,0.3-1.4c0.2-0.3,0.1-0.7,0.2-1.1
						c0.1-0.3,0.1-0.7,0.2-1.1c0.1-0.8,0.3-1.5,0.4-2.3c0-0.9,0.2-1.7,0.2-2.5c0-0.7,0.3-1.4,0.2-2.1c0,0,0-0.1,0-0.1
						c0.4-0.5,0.2-1-0.1-1.5c-0.3,0.4-0.6,0.8-0.9,1.1c-0.1,0.8-0.3,1.6-0.4,2.3c-0.2,0.7-0.4,1.4-0.5,2.1c-0.1,0.7-0.3,1.5-0.4,2.2
						c-0.2,0.8-0.3,1.5-0.5,2.3c-0.2,0.7-0.2,1.5-0.5,2.1c0.2,0.8-0.5,1.4-0.3,2.2c0.2,0.4,0.4,0.7,0.5,1
						C42.1,46.1,42.4,46.1,42.7,46.1z"/>
					<path id="Path_27_" class="st0" d="M23.6,50.5c0,0-0.1,0.1-0.2,0.2c-0.8,0-1.6,0.1-2.4,0c-1.2-0.2-2.4-0.1-3.6-0.1
						c-1.2,0-2.5,0-3.7,0c-0.9,0-1.7,0-2.7,0c0.1-0.1,0.1-0.2,0.1-0.2c-0.2-0.5,0.3-0.9,0.3-1.4c0-0.5,0.3-1,0.3-1.5
						c0.1-0.5,0.3-1,0.3-1.5c0.1-0.5,0.2-1,0.3-1.5c0.2-0.5,0.3-1,0.3-1.5c0.1-0.5,0.2-1,0.3-1.5c0.1-0.5,0.2-1,0.3-1.5
						c0.1-0.5,0.2-1,0.4-1.5c0.1-0.5,0.2-1,0.3-1.5c0.1-0.5,0.2-1,0.3-1.5c0.1-0.5,0.2-1,0.3-1.5c0.1-0.5,0.2-1,0.3-1.5
						s0.2-1,0.3-1.5c0.1-0.5,0.3-1,0.4-1.5c0.1-0.5,0.2-1,0.3-1.5c0.2-0.5,0.2-1,0.2-1.6c0.1-0.1,0.2-0.2,0.3-0.2
						c3.8,0,7.6,0,11.5,0c0,0.4,0.1,0.7-0.1,1.1c-0.2,0.3,0.1,0.7-0.2,1c0,0.6-0.2,1.2-0.4,1.7c0,0.2,0,0.3,0,0.5
						c-2.6,0.2-5.1-0.3-7.8-0.1c-0.5,1.7-0.8,3.4-1.4,5.2c1.1-0.1,2,0.2,3,0.2c1-0.1,1.9,0,2.9,0c0.3,0,0.7,0,1.1,0
						c-0.4,1.5-0.8,2.9-1.2,4.4c-0.2,0.1-0.5,0.1-0.7,0c-0.1-0.1-0.3-0.1-0.5-0.1c-0.6,0-1.1,0-1.7,0c-0.6,0-1.3,0-1.9,0
						c-0.6,0-1.2-0.1-1.8-0.2c-0.1,0.6-0.3,1.1-0.4,1.6c-0.1,0.7-0.4,1.4-0.5,2.1c-0.1,0.7-0.4,1.3-0.4,2c0,0.1,0,0.2,0,0.4
						c2.8,0,5.5,0,8.3,0C24.1,47.6,23.8,49,23.6,50.5z"/>
				</g>
			</g>
		</g>
	</g>
</g>
<g>
	<path class="st0" d="M76,57.8h-3.1v-1.1h7.5v1.1h-3.1V67H76V57.8z"/>
	<path class="st0" d="M86.4,63.9h-3.8l-1,3.1h-1.3l3.5-10.3h1.4L88.7,67h-1.4L86.4,63.9z M86,62.8l-0.5-1.6c-0.4-1.2-0.7-2.3-1-3.5
		h-0.1c-0.3,1.2-0.7,2.3-1,3.5l-0.5,1.6H86z"/>
	<path class="st0" d="M90.2,56.7h1.3V67h-1.3V56.7z"/>
	<path class="st0" d="M93.2,56.7h1.3l1.1,5.6c0.2,1.1,0.4,2.2,0.6,3.3h0.1c0.2-1.1,0.5-2.2,0.7-3.3l1.4-5.6h1.2l1.4,5.6
		c0.3,1.1,0.5,2.2,0.7,3.3h0.1c0.2-1.1,0.4-2.2,0.6-3.3l1.1-5.6h1.2L102.6,67h-1.6l-1.6-6.2c-0.2-0.8-0.3-1.6-0.5-2.3H99
		c-0.2,0.8-0.4,1.5-0.5,2.3L96.9,67h-1.5L93.2,56.7z"/>
	<path class="st0" d="M111.3,63.9h-3.8l-1,3.1h-1.3l3.5-10.3h1.4l3.5,10.3h-1.4L111.3,63.9z M110.9,62.8l-0.5-1.6
		c-0.4-1.2-0.7-2.3-1-3.5h-0.1c-0.3,1.2-0.7,2.3-1,3.5l-0.5,1.6H110.9z"/>
	<path class="st0" d="M115,56.7h1.3l3.7,6.5l1.1,2.1h0.1c-0.1-1-0.2-2.2-0.2-3.2v-5.3h1.2V67H121l-3.7-6.5l-1.1-2.1h-0.1
		c0.1,1,0.2,2.1,0.2,3.2V67H115V56.7z"/>
	<path class="st0" d="M128.3,56.7h5.9v1.1h-4.6V61h3.9v1.1h-3.9v3.7h4.8V67h-6.1V56.7z"/>
	<path class="st0" d="M136.5,56.7h1.3l3.7,6.5l1.1,2.1h0.1c-0.1-1-0.2-2.2-0.2-3.2v-5.3h1.2V67h-1.3l-3.7-6.5l-1.1-2.1h-0.1
		c0.1,1,0.2,2.1,0.2,3.2V67h-1.2V56.7z"/>
	<path class="st0" d="M145.2,56.7h1.4l1.7,5.6c0.4,1.2,0.6,2.2,1,3.4h0.1c0.4-1.2,0.6-2.2,1-3.4l1.7-5.6h1.3L150,67h-1.5L145.2,56.7
		z"/>
	<path class="st0" d="M154.7,56.7h1.3V67h-1.3V56.7z"/>
	<path class="st0" d="M164.4,67l-2.5-4.4h-1.8V67h-1.3V56.7h3.2c2.1,0,3.6,0.7,3.6,2.9c0,1.6-0.9,2.5-2.3,2.9l2.6,4.5H164.4z
		 M160.1,61.6h1.7c1.6,0,2.5-0.6,2.5-2c0-1.4-0.9-1.8-2.5-1.8h-1.7V61.6z"/>
	<path class="st0" d="M167.1,61.8c0-3.3,1.8-5.3,4.4-5.3c2.6,0,4.4,2,4.4,5.3c0,3.3-1.8,5.4-4.4,5.4
		C168.9,67.2,167.1,65.1,167.1,61.8z M174.5,61.8c0-2.6-1.2-4.2-3.1-4.2c-1.8,0-3.1,1.6-3.1,4.2c0,2.6,1.2,4.2,3.1,4.2
		C173.3,66,174.5,64.4,174.5,61.8z"/>
	<path class="st0" d="M178.1,56.7h1.3l3.7,6.5l1.1,2.1h0.1c-0.1-1-0.2-2.2-0.2-3.2v-5.3h1.2V67H184l-3.7-6.5l-1.1-2.1h-0.1
		c0.1,1,0.2,2.1,0.2,3.2V67h-1.2V56.7z"/>
	<path class="st0" d="M188.2,56.7h1.6l2,5.5c0.2,0.7,0.5,1.4,0.7,2.1h0.1c0.2-0.7,0.5-1.4,0.7-2.1l2-5.5h1.6V67h-1.2v-5.7
		c0-0.9,0.1-2.1,0.2-3h-0.1l-0.8,2.3l-1.9,5.3H192l-1.9-5.3l-0.8-2.3h-0.1c0.1,0.9,0.2,2.1,0.2,3V67h-1.2V56.7z"/>
	<path class="st0" d="M199.5,56.7h5.9v1.1h-4.6V61h3.9v1.1h-3.9v3.7h4.8V67h-6.1V56.7z"/>
	<path class="st0" d="M207.8,56.7h1.3l3.7,6.5l1.1,2.1h0.1c-0.1-1-0.2-2.2-0.2-3.2v-5.3h1.2V67h-1.3l-3.7-6.5l-1.1-2.1h-0.1
		c0.1,1,0.2,2.1,0.2,3.2V67h-1.2V56.7z"/>
	<path class="st0" d="M220,57.8h-3.1v-1.1h7.5v1.1h-3.1V67H220V57.8z"/>
	<path class="st0" d="M230.3,63.9h-3.8l-1,3.1h-1.3l3.5-10.3h1.4l3.5,10.3h-1.4L230.3,63.9z M230,62.8l-0.5-1.6
		c-0.4-1.2-0.7-2.3-1-3.5h-0.1c-0.3,1.2-0.7,2.3-1,3.5l-0.5,1.6H230z"/>
	<path class="st0" d="M234.1,56.7h1.3v9.2h4.5V67h-5.8V56.7z"/>
	<path class="st0" d="M244.9,56.7h5.9v1.1h-4.6V61h3.9v1.1h-3.9v3.7h4.8V67h-6.1V56.7z"/>
	<path class="st0" d="M253.1,56.7h1.3l3.7,6.5l1.1,2.1h0.1c-0.1-1-0.2-2.2-0.2-3.2v-5.3h1.2V67h-1.3l-3.7-6.5l-1.1-2.1h-0.1
		c0.1,1,0.2,2.1,0.2,3.2V67h-1.2V56.7z"/>
	<path class="st0" d="M262.6,61.9c0-3.3,2-5.3,4.7-5.3c1.4,0,2.4,0.6,3,1.3l-0.7,0.8c-0.5-0.5-1.2-1-2.2-1c-2.1,0-3.4,1.6-3.4,4.2
		c0,2.6,1.2,4.2,3.4,4.2c0.7,0,1.5-0.2,1.9-0.6v-2.7H267v-1.1h3.4V66c-0.7,0.7-1.8,1.2-3.2,1.2C264.5,67.2,262.6,65.2,262.6,61.9z"
		/>
	<path class="st0" d="M272.8,56.7h1.3V67h-1.3V56.7z"/>
	<path class="st0" d="M276.9,56.7h1.3l3.7,6.5l1.1,2.1h0.1c-0.1-1-0.2-2.2-0.2-3.2v-5.3h1.2V67h-1.3l-3.7-6.5l-1.1-2.1H278
		c0.1,1,0.2,2.1,0.2,3.2V67h-1.2V56.7z"/>
	<path class="st0" d="M287,56.7h5.9v1.1h-4.6V61h3.9v1.1h-3.9v3.7h4.8V67H287V56.7z"/>
	<path class="st0" d="M295.3,56.7h5.9v1.1h-4.6V61h3.9v1.1h-3.9v3.7h4.8V67h-6.1V56.7z"/>
	<path class="st0" d="M309.2,67l-2.5-4.4h-1.8V67h-1.3V56.7h3.2c2.1,0,3.6,0.7,3.6,2.9c0,1.6-0.9,2.5-2.3,2.9l2.6,4.5H309.2z
		 M304.8,61.6h1.7c1.6,0,2.5-0.6,2.5-2c0-1.4-0.9-1.8-2.5-1.8h-1.7V61.6z"/>
	<path class="st0" d="M312.4,56.7h1.3V67h-1.3V56.7z"/>
	<path class="st0" d="M316.5,56.7h1.3l3.7,6.5l1.1,2.1h0.1c-0.1-1-0.2-2.2-0.2-3.2v-5.3h1.2V67h-1.3l-3.7-6.5l-1.1-2.1h-0.1
		c0.1,1,0.2,2.1,0.2,3.2V67h-1.2V56.7z"/>
	<path class="st0" d="M326,61.9c0-3.3,2-5.3,4.7-5.3c1.4,0,2.4,0.6,3,1.3l-0.7,0.8c-0.5-0.5-1.2-1-2.2-1c-2.1,0-3.4,1.6-3.4,4.2
		c0,2.6,1.2,4.2,3.4,4.2c0.7,0,1.5-0.2,1.9-0.6v-2.7h-2.2v-1.1h3.4V66c-0.7,0.7-1.8,1.2-3.2,1.2C327.9,67.2,326,65.2,326,61.9z"/>
	<path class="st0" d="M338.8,61.9c0-3.3,1.9-5.3,4.6-5.3c1.2,0,2.2,0.6,2.8,1.3l-0.7,0.8c-0.5-0.6-1.2-1-2.1-1
		c-1.9,0-3.2,1.6-3.2,4.2c0,2.6,1.2,4.2,3.2,4.2c1,0,1.7-0.4,2.4-1.1l0.7,0.8c-0.8,0.9-1.8,1.5-3.2,1.5
		C340.7,67.2,338.8,65.2,338.8,61.9z"/>
	<path class="st0" d="M347.3,61.8c0-3.3,1.8-5.3,4.4-5.3s4.4,2,4.4,5.3c0,3.3-1.8,5.4-4.4,5.4S347.3,65.1,347.3,61.8z M354.7,61.8
		c0-2.6-1.2-4.2-3.1-4.2c-1.8,0-3.1,1.6-3.1,4.2c0,2.6,1.2,4.2,3.1,4.2C353.5,66,354.7,64.4,354.7,61.8z"/>
	<path class="st0" d="M357.9,66.2c0-0.6,0.4-1,0.9-1c0.5,0,0.9,0.4,0.9,1c0,0.6-0.4,1-0.9,1C358.3,67.2,357.9,66.8,357.9,66.2z"/>
	<path class="st0" d="M361.5,68.9c0.9-0.4,1.4-1.1,1.4-1.9c-0.1,0-0.1,0-0.2,0c-0.5,0-0.9-0.3-0.9-0.9c0-0.5,0.4-0.9,1-0.9
		c0.7,0,1.1,0.6,1.1,1.5c0,1.3-0.8,2.4-2,2.9L361.5,68.9z"/>
	<path class="st0" d="M369.2,56.7h1.3v9.2h4.5V67h-5.8V56.7z"/>
	<path class="st0" d="M377,57.8h-3.1v-1.1h7.5v1.1h-3.1V67H377V57.8z"/>
	<path class="st0" d="M383.3,56.7h2.6c3.2,0,4.8,1.8,4.8,5.1c0,3.2-1.7,5.2-4.8,5.2h-2.6V56.7z M385.8,65.9c2.4,0,3.6-1.5,3.6-4.1
		c0-2.6-1.2-4-3.6-4h-1.2v8.2H385.8z"/>
	<path class="st0" d="M392.5,66.2c0-0.6,0.4-1,0.9-1s0.9,0.4,0.9,1c0,0.6-0.4,1-0.9,1S392.5,66.8,392.5,66.2z"/>
</g>
</svg>
