<?xml version="1.0" encoding="UTF-8"?>
<svg width="20px" height="20px" viewBox="0 0 20 20" version="1.1" xmlns="http://www.w3.org/2000/svg" xmlns:xlink="http://www.w3.org/1999/xlink">
    <title>Group 5</title>
    <g id="Page-1" stroke="none" stroke-width="1" fill="none" fill-rule="evenodd">
        <g id="index_pc" transform="translate(-1333.000000, -3851.000000)" fill="#FFFFFF">
            <g id="footer" transform="translate(0.000000, 3791.000000)">
                <g id="Group-5" transform="translate(1333.000000, 60.000000)">
                    <path d="M6.27659574,18.4886364 L13.7234043,18.4886364 L13.7234043,17.1363636 L6.27659574,17.1363636 L6.27659574,18.4886364 Z M6.27659574,15.7045455 L13.7234043,15.7045455 L13.7234043,14.3522727 L6.27659574,14.3522727 L6.27659574,15.7045455 Z M5,15.7840909 L5,19.6022727 C5,19.8409091 5.14184397,20 5.35460993,20 L14.6453901,20 C14.858156,20 15,19.8409091 15,19.6022727 L15,15.7840909 L15,13.3977273 C15,13.1590909 14.858156,13 14.6453901,13 L5.35460993,13 C5.14184397,13 5,13.1590909 5,13.3977273 L5,15.7840909 Z" id="Fill-1"></path>
                    <polygon id="Fill-3" points="15 3.5862069 15 0 5 0 5 3.5862069 5 6 15 6"></polygon>
                    <path d="M17.4377224,4 L16.1565836,4 L16.1565836,6.65822785 L16.1565836,8.02531646 L3.77224199,8.02531646 L3.77224199,6.65822785 L3.77224199,4 L2.4911032,4 C1.13879004,4 0,5.21518987 0,6.65822785 L0,13.3417722 C0,14.7848101 1.13879004,16 2.4911032,16 L3.77224199,16 L3.77224199,13.3417722 L3.77224199,11.9746835 L16.227758,11.9746835 L16.227758,13.3417722 L16.227758,16 L17.5088968,16 C18.86121,16 20,14.7848101 20,13.3417722 L20,6.73417722 C19.9288256,5.21518987 18.7900356,4 17.4377224,4" id="Fill-4"></path>
                </g>
            </g>
        </g>
    </g>
</svg>