<?xml version="1.0" encoding="UTF-8"?>
<svg width="20px" height="20px" viewBox="0 0 20 20" version="1.1" xmlns="http://www.w3.org/2000/svg" xmlns:xlink="http://www.w3.org/1999/xlink">
    <title>Fill 1</title>
    <g id="Page-1" stroke="none" stroke-width="1" fill="none" fill-rule="evenodd">
        <g id="index_pc" transform="translate(-1159.000000, -3851.000000)" fill="#FFFFFF">
            <g id="footer" transform="translate(0.000000, 3791.000000)">
                <g id="Group-2" transform="translate(1159.000000, 60.000000)">
                    <path d="M17.7777778,8.88888889 L20,8.88888889 L20,6.66666667 L17.7777778,6.66666667 L17.7777778,8.88888889 Z M18.8888889,13.8888889 C17.5055556,13.8888889 16.1722222,13.6666667 14.9222222,13.2555556 C14.5388889,13.1333333 14.1,13.2222222 13.7944444,13.5277778 L11.35,15.9777778 C8.2,14.3777778 5.63333333,11.8055556 4.02777778,8.66111111 L6.47222222,6.21111111 C6.77777778,5.90555556 6.86666667,5.46666667 6.74444444,5.08333333 C6.33333333,3.83333333 6.11111111,2.49444444 6.11111111,1.11111111 C6.11111111,0.494444444 5.61666667,0 5,0 L1.11111111,0 C0.494444444,0 0,0.494444444 0,1.11111111 C0,11.5444444 8.45555556,20 18.8888889,20 C19.5055556,20 20,19.5055556 20,18.8888889 L20,15 C20,14.3833333 19.5055556,13.8888889 18.8888889,13.8888889 L18.8888889,13.8888889 Z M13.3333333,8.88888889 L15.5555556,8.88888889 L15.5555556,6.66666667 L13.3333333,6.66666667 L13.3333333,8.88888889 Z M8.88888889,8.88888889 L11.1111111,8.88888889 L11.1111111,6.66666667 L8.88888889,6.66666667 L8.88888889,8.88888889 Z" id="Fill-1"></path>
                </g>
            </g>
        </g>
    </g>
</svg>